{"glyphs":{"0":{"ha":660,"x_min":54,"x_max":706,"o":"m 686 794 q 701 728 697 763 q 701 649 706 693 l 672 381 q 657 299 668 335 q 626 232 646 264 q 617 219 621 225 q 608 207 614 214 l 576 150 q 461 40 532 81 q 311 0 390 0 q 168 40 231 0 q 76 150 106 81 q 58 218 63 183 q 58 297 54 253 l 86 565 q 100 637 90 606 q 126 697 110 668 l 149 739 q 162 768 156 754 q 178 796 168 782 q 295 908 224 867 q 447 949 367 949 q 590 907 526 949 q 686 794 654 865 m 676 649 q 676 722 681 689 q 661 783 672 754 q 575 886 633 849 q 444 924 517 924 q 305 886 369 924 q 200 783 240 849 q 156 649 164 726 l 126 381 q 126 306 122 339 q 143 244 131 274 q 226 142 169 179 q 358 106 283 106 q 497 142 431 106 q 604 244 563 179 q 633 306 622 274 q 647 381 643 339 l 676 649 m 422 379 q 418 356 421 364 q 406 339 415 347 q 383 331 397 331 q 359 340 369 331 q 350 367 349 350 l 381 649 q 385 673 382 664 q 397 689 388 682 q 408 694 403 692 q 419 697 413 697 q 444 688 433 697 q 453 663 454 679 l 422 379 m 660 633 q 646 500 653 567 q 632 367 639 433 q 581 235 624 292 q 477 148 538 178 q 349 119 417 118 q 225 163 282 121 q 149 268 168 204 q 138 331 138 300 q 142 394 139 363 q 156 528 149 461 q 171 663 164 596 q 222 794 179 738 q 325 881 265 850 q 453 909 385 911 q 578 865 521 907 q 654 760 632 825 q 664 697 664 728 q 660 633 664 667 m 608 596 q 614 653 611 625 q 614 707 617 681 q 600 758 611 733 q 567 807 589 783 q 467 858 524 851 q 357 844 410 865 q 265 774 304 822 q 219 663 226 726 l 194 433 q 189 376 192 404 q 189 322 186 347 q 202 271 192 296 q 235 222 213 246 q 335 170 278 178 q 445 185 392 163 q 538 254 499 207 q 583 367 576 301 l 608 596 m 560 775 q 584 728 578 751 q 590 679 590 704 q 587 628 590 654 q 581 576 583 603 q 570 472 575 524 q 558 367 565 419 q 515 264 551 306 q 428 204 478 222 q 328 197 379 186 q 243 253 278 207 q 218 301 225 276 q 211 350 211 325 q 215 401 211 375 q 222 453 219 426 q 233 558 228 506 q 244 663 238 610 q 288 765 250 722 q 374 824 325 807 q 474 831 422 842 q 560 775 525 821 m 496 321 q 506 356 501 332 q 513 407 510 381 q 518 457 515 433 q 522 492 521 481 q 531 577 526 535 q 540 663 535 619 q 519 745 546 714 q 452 784 492 776 q 372 773 413 792 q 307 707 331 754 q 297 672 301 696 q 289 622 292 649 q 284 572 286 596 q 281 538 282 549 q 272 452 276 494 q 263 367 268 410 q 284 284 257 315 q 350 245 311 253 q 431 256 389 238 q 496 321 472 274 m 500 511 q 493 435 496 472 q 483 360 490 397 q 460 307 478 328 q 420 276 443 286 q 372 267 397 267 q 327 280 347 268 q 295 313 307 292 q 286 367 283 335 q 294 442 290 404 q 303 518 299 479 q 309 594 306 556 q 319 669 313 632 q 361 740 328 717 q 431 761 394 763 q 494 735 467 760 q 517 663 521 710 q 508 586 513 624 q 500 511 504 549 m 414 329 q 432 353 429 340 q 436 381 435 365 q 440 409 439 396 q 443 436 440 422 q 454 550 449 494 q 467 663 460 606 q 442 708 469 694 q 388 700 415 721 q 371 676 374 689 q 365 647 368 663 q 363 620 364 633 q 360 592 363 607 q 349 479 354 535 q 336 367 343 424 q 342 338 335 350 q 360 321 349 326 q 387 317 372 315 q 414 329 401 318 z "},"1":{"ha":468,"x_min":83,"x_max":531,"o":"m 154 949 l 531 949 l 439 79 l 435 79 l 392 0 l 143 0 l 122 22 l 182 592 l 83 592 l 113 863 l 153 938 l 154 949 m 417 104 l 503 924 l 178 924 l 154 697 l 253 697 l 190 104 l 417 104 m 486 910 l 404 121 l 207 121 l 268 713 l 169 713 l 190 910 l 289 910 l 388 910 l 486 910 l 486 910 m 358 169 l 432 861 l 235 861 l 224 763 l 322 763 l 260 169 l 358 169 l 358 169 m 406 836 l 338 194 l 288 194 l 350 786 l 251 786 l 257 836 l 406 836 l 406 836 z "},"2":{"ha":660,"x_min":24,"x_max":703,"o":"m 346 397 q 331 358 333 383 q 328 318 329 332 l 376 318 l 396 318 l 624 318 l 603 121 l 108 121 l 135 358 l 136 376 q 198 514 147 453 q 325 600 249 575 q 364 610 344 607 q 404 614 383 614 q 442 626 425 614 q 463 661 458 638 q 451 699 465 686 q 419 712 438 711 q 383 701 400 713 q 364 664 367 689 l 165 664 q 203 775 172 726 q 277 856 233 824 q 373 901 321 888 q 476 908 425 915 q 569 872 526 901 q 639 788 613 842 q 660 712 656 751 q 655 633 664 672 q 624 556 646 593 q 571 490 603 519 q 500 442 535 458 q 421 419 465 425 q 383 417 401 417 q 346 397 364 418 m 371 268 l 272 268 q 275 297 274 278 q 279 338 276 317 q 286 379 282 360 q 296 408 290 399 q 320 440 307 428 q 354 458 333 451 q 389 465 372 465 q 422 468 406 465 q 492 492 460 474 q 549 536 524 510 q 590 596 574 563 q 610 667 606 629 q 603 737 613 704 q 573 795 593 769 q 523 838 553 821 q 457 860 493 856 q 384 855 419 864 q 318 826 349 846 q 263 778 288 807 q 226 713 239 749 l 332 713 q 367 746 346 733 q 411 761 389 758 q 454 757 433 764 q 490 732 475 750 q 510 692 506 714 q 508 648 514 669 q 486 607 501 626 q 449 576 471 588 q 403 565 425 565 q 358 560 381 565 q 272 519 310 549 q 214 456 236 493 q 185 376 192 418 l 163 169 l 557 169 l 568 268 l 390 268 l 371 268 m 260 375 q 250 310 253 343 q 244 243 247 276 l 368 243 l 388 243 l 542 243 l 536 194 l 190 194 l 210 375 q 245 460 217 421 q 318 521 274 499 q 365 535 342 532 q 414 540 389 538 q 501 588 467 546 q 536 653 531 619 q 531 713 542 686 q 497 760 519 740 q 444 786 474 781 q 381 781 414 792 q 321 738 349 771 l 264 738 q 309 790 282 768 q 367 824 336 813 q 432 836 399 836 q 496 822 465 836 q 547 785 526 808 q 578 732 568 761 q 585 669 588 703 q 568 603 583 636 q 530 546 553 568 q 472 508 507 524 q 440 497 456 500 q 407 490 424 493 q 373 488 389 489 q 342 479 357 486 q 287 437 308 464 q 260 375 265 410 m 96 411 l 96 410 l 96 411 m 93 408 q 96 410 94 410 l 93 408 m 518 357 l 667 357 l 636 79 l 632 79 l 589 0 l 24 0 l 54 294 q 89 400 61 351 l 93 407 l 93 406 l 96 410 l 113 440 q 168 536 128 490 l 175 543 l 81 543 l 83 579 q 121 700 92 646 l 146 742 q 183 813 158 779 q 239 872 207 846 q 337 928 283 908 q 444 949 390 949 q 582 912 521 949 q 675 808 643 875 q 697 737 690 775 q 700 663 703 699 q 636 508 689 579 l 613 464 q 583 420 599 440 q 547 382 567 400 l 518 357 m 342 331 q 345 361 343 343 q 354 388 347 379 q 375 401 365 399 q 400 403 385 403 q 421 404 414 403 q 506 428 468 411 q 579 479 543 446 q 635 549 613 510 q 667 631 658 589 q 673 715 676 672 q 651 794 669 757 q 567 890 622 857 q 442 924 513 924 q 342 905 392 924 q 253 853 293 886 q 183 767 208 817 q 153 663 158 718 l 151 649 l 375 649 l 376 663 q 391 688 378 681 q 415 696 404 696 q 440 686 435 696 q 446 660 450 676 q 431 634 443 640 q 404 628 419 628 q 321 613 365 626 q 248 576 282 600 q 188 521 214 553 q 144 453 161 489 q 122 376 128 417 l 93 106 l 614 106 l 639 331 l 342 331 z "},"3":{"ha":660,"x_min":46,"x_max":710,"o":"m 703 660 q 686 583 699 618 q 649 514 674 549 q 672 443 667 479 q 672 367 676 407 q 665 323 669 344 q 651 279 661 301 q 633 242 643 260 q 608 207 622 224 l 586 168 q 510 74 557 114 q 401 15 463 35 q 311 0 358 0 q 207 21 256 0 q 122 81 158 42 q 58 283 46 164 l 63 319 l 103 394 l 104 406 l 168 406 l 183 543 l 86 543 l 89 579 q 125 696 94 640 l 150 739 q 198 823 168 785 q 267 889 228 861 q 353 933 307 917 q 447 949 399 949 q 494 944 471 949 q 536 933 517 940 q 643 862 600 910 q 700 749 686 814 q 703 660 710 708 m 626 288 q 649 405 651 346 q 617 514 646 464 q 672 622 657 564 q 675 740 688 681 q 624 845 663 801 q 525 908 585 889 q 444 922 489 922 q 340 901 390 922 q 251 845 290 881 q 188 763 213 810 q 157 661 163 715 l 154 647 l 381 647 l 383 661 q 397 688 385 678 q 421 697 408 697 q 433 695 428 697 q 444 686 439 693 q 447 647 461 669 q 435 633 444 640 q 414 626 426 626 l 251 626 l 228 400 l 243 400 l 338 400 q 350 401 346 400 l 368 401 q 392 400 375 401 q 415 389 408 399 q 421 357 425 375 q 396 333 411 338 q 383 331 388 331 q 359 340 368 331 q 351 365 350 350 l 353 379 l 126 379 l 125 365 q 135 265 119 313 q 185 179 151 217 q 262 124 217 143 q 358 104 307 104 q 401 108 379 104 q 442 118 422 111 q 554 183 507 139 q 626 288 601 226 m 519 899 q 613 835 576 878 q 660 738 649 792 q 656 624 671 683 q 597 515 640 565 q 633 407 631 465 q 613 294 635 349 q 546 197 590 240 q 439 133 501 154 q 319 124 376 114 q 220 168 263 135 q 154 253 178 201 q 138 368 131 306 l 336 368 q 353 327 333 342 q 397 322 372 313 q 433 356 424 331 q 426 400 442 381 q 408 413 419 408 q 383 417 396 417 q 358 417 371 418 q 338 417 346 417 l 242 417 l 263 615 l 410 615 q 440 622 426 614 q 460 644 453 631 q 466 672 467 657 q 456 699 465 686 q 431 713 444 711 q 403 710 417 715 q 379 692 389 704 q 368 664 369 681 l 169 664 q 209 778 175 726 q 292 864 243 831 q 401 908 342 897 q 519 899 461 918 m 536 515 q 592 593 569 556 q 614 683 614 631 q 594 770 615 731 q 536 833 574 810 q 450 861 496 858 q 361 847 404 864 q 283 796 318 831 q 231 714 247 761 l 336 714 q 377 751 353 739 q 426 763 401 763 q 474 750 451 763 q 507 713 496 738 q 514 661 518 688 q 494 613 510 635 q 456 577 479 590 q 403 565 432 564 l 307 565 l 297 467 q 322 467 304 467 q 360 467 340 467 q 399 465 381 467 q 424 463 417 464 q 472 426 456 453 q 483 365 489 399 q 454 303 479 328 q 399 272 429 279 q 340 275 369 264 q 294 318 310 286 l 189 318 q 224 235 196 269 q 291 185 251 201 q 377 171 331 168 q 469 199 424 174 q 541 262 513 222 q 579 349 569 301 q 576 439 590 401 q 536 515 563 476 m 542 796 q 582 733 569 769 q 588 656 594 696 q 557 579 581 611 q 504 515 533 547 q 544 452 526 483 q 558 376 561 421 q 536 299 556 336 q 482 236 517 263 q 408 199 447 208 q 331 199 368 190 q 265 231 294 207 q 222 294 236 256 l 279 294 q 326 254 297 267 q 385 244 354 242 q 444 265 415 247 q 490 314 472 282 q 509 377 508 344 q 496 435 510 410 q 456 477 482 461 q 396 492 431 493 l 325 492 l 329 540 l 400 540 q 464 555 435 539 q 513 597 493 571 q 539 654 532 622 q 533 718 546 686 q 496 767 521 749 q 441 788 471 785 q 380 778 411 790 q 325 738 349 765 l 268 738 q 325 801 290 776 q 398 833 360 825 q 474 833 436 842 q 542 796 513 824 z "},"4":{"ha":660,"x_min":76,"x_max":731,"o":"m 731 949 l 639 79 l 633 79 l 590 0 l 321 0 l 346 247 q 268 256 306 249 q 190 288 231 263 q 119 358 144 319 q 83 451 93 396 q 78 513 76 479 q 83 581 81 546 l 114 863 l 156 938 l 157 949 l 435 949 l 429 896 l 451 938 l 453 949 l 731 949 m 701 924 l 475 924 l 439 578 l 438 578 l 419 578 q 376 599 382 578 q 374 619 374 601 q 382 690 375 638 l 382 699 l 406 924 l 179 924 l 158 726 l 157 703 q 147 617 151 663 q 150 540 143 571 q 183 452 160 488 q 250 389 207 417 q 332 358 290 364 q 415 353 374 353 l 389 106 l 615 106 l 701 924 m 654 617 l 603 124 l 406 124 l 431 369 q 341 374 383 369 q 258 406 299 379 q 196 465 218 432 q 164 547 174 499 q 161 588 161 564 q 163 638 161 613 q 168 688 165 664 q 174 729 171 713 q 183 821 178 775 q 193 913 188 867 l 390 913 l 385 863 q 376 782 381 822 q 368 701 372 742 q 366 682 368 697 q 363 649 364 667 q 360 617 361 632 q 361 596 360 601 q 377 575 367 581 q 401 567 388 569 q 427 567 414 565 q 451 568 440 568 l 485 883 l 489 913 l 686 913 l 654 617 m 560 172 l 632 864 l 533 864 l 497 518 q 472 518 490 518 q 434 518 454 518 q 396 519 414 518 q 372 522 378 519 q 324 556 342 531 q 310 614 307 581 q 322 739 314 676 q 336 864 329 801 l 238 864 q 229 781 233 822 q 219 700 225 740 q 210 618 215 658 q 218 538 204 578 q 258 472 231 500 q 325 431 286 444 q 405 417 365 415 q 486 419 444 419 l 461 172 l 560 172 m 604 839 l 536 197 l 486 197 l 513 444 q 483 444 506 444 q 436 444 461 444 q 389 445 411 444 q 360 447 367 446 q 293 476 322 454 q 249 535 264 499 q 235 609 232 572 q 242 685 238 646 l 258 839 l 308 839 q 301 772 306 806 q 294 704 297 738 q 291 675 293 693 q 288 638 289 657 q 286 600 286 618 q 289 571 286 582 q 324 518 299 539 q 383 494 349 497 q 451 492 418 492 q 518 493 485 493 l 554 839 l 604 839 z "},"5":{"ha":660,"x_min":51,"x_max":735,"o":"m 657 592 l 588 592 q 649 515 628 560 q 672 443 665 482 q 674 367 678 404 q 653 283 669 325 q 608 206 638 242 l 586 164 q 543 103 568 129 q 437 26 494 53 q 315 0 379 0 q 212 20 261 0 q 126 76 163 40 q 69 170 88 117 q 58 283 51 224 l 119 863 l 160 936 l 161 949 l 735 949 l 706 671 l 700 671 l 657 592 m 517 604 q 448 623 483 619 q 381 626 413 626 l 388 696 l 683 696 l 707 922 l 185 922 l 131 401 l 385 401 q 422 378 415 401 q 411 343 429 361 q 386 331 400 331 q 361 340 372 331 q 353 365 350 349 l 354 381 l 128 381 l 126 365 q 189 175 115 253 q 267 123 221 142 q 363 104 313 104 q 475 128 421 104 q 574 200 529 153 q 621 270 603 232 q 646 348 639 308 q 648 426 653 388 q 625 501 643 465 q 581 562 607 538 q 517 604 554 586 m 631 240 l 632 243 q 631 242 632 242 q 631 240 631 242 m 690 910 l 669 713 l 442 713 l 424 713 l 374 713 l 364 614 q 439 612 403 614 q 510 593 475 610 q 570 554 546 578 q 613 494 594 531 q 634 424 629 461 q 632 350 639 388 q 608 277 625 313 q 561 211 590 242 q 471 144 519 167 q 374 120 422 122 q 281 135 325 118 q 203 185 236 153 q 152 263 169 217 q 140 368 135 310 l 338 368 q 344 339 336 351 q 365 321 353 326 q 394 319 378 315 q 422 335 410 322 q 438 363 436 349 q 435 390 440 378 q 416 409 429 401 q 386 417 403 417 l 146 417 l 197 910 l 690 910 m 626 763 l 638 861 l 243 861 l 201 467 l 354 467 q 394 467 375 467 q 428 463 413 467 q 458 447 444 458 q 481 413 471 435 q 478 334 497 369 q 426 281 460 299 q 354 270 392 264 q 297 318 317 276 l 192 318 q 222 240 199 272 q 279 191 246 208 q 351 171 313 174 q 429 180 390 168 q 502 219 468 192 q 560 289 536 246 q 585 409 592 347 q 536 514 578 471 q 484 550 511 539 q 428 565 457 561 q 370 567 400 568 q 310 565 340 565 l 331 763 l 626 763 m 610 836 l 604 788 l 308 788 l 282 540 l 389 540 q 442 536 417 540 q 492 517 468 532 q 553 438 536 489 q 553 332 569 386 q 488 237 533 271 q 390 197 442 203 q 291 214 338 190 q 224 293 244 238 l 282 293 q 350 246 308 253 q 429 256 392 239 q 492 310 467 274 q 510 396 517 347 q 473 465 504 440 q 397 490 442 490 l 228 490 l 264 836 l 610 836 z "},"6":{"ha":660,"x_min":54,"x_max":717,"o":"m 360 347 q 355 374 354 356 q 357 404 356 392 l 369 404 q 414 396 406 404 q 425 371 422 389 q 411 344 422 356 q 386 335 400 335 q 360 347 368 335 m 650 543 l 629 543 q 632 538 631 540 q 636 532 633 535 q 668 451 660 493 q 672 367 676 408 q 653 290 668 329 q 615 217 639 250 l 606 204 l 583 163 q 576 149 579 156 q 567 136 572 143 q 513 77 543 104 q 450 32 483 50 q 381 8 415 17 q 311 0 347 0 q 150 51 221 0 q 92 117 115 79 q 61 203 69 156 q 56 262 54 233 q 61 319 58 290 l 63 332 q 63 344 63 339 q 64 354 64 349 l 81 514 q 94 609 86 563 q 128 700 103 656 l 154 746 q 188 810 165 779 q 246 874 210 842 q 340 929 289 910 q 444 949 392 949 q 551 928 501 949 q 636 869 600 907 q 704 663 717 786 l 700 622 l 694 622 l 650 543 m 419 697 q 444 688 433 697 q 453 663 454 679 l 451 649 l 676 649 l 678 663 q 617 851 689 775 q 538 904 583 885 q 442 924 493 924 q 261 854 343 924 q 205 794 225 825 q 174 731 185 763 q 158 665 163 699 q 150 597 153 632 l 147 581 l 133 438 q 131 424 132 431 q 129 411 131 418 q 124 353 126 383 q 129 293 122 324 q 158 213 136 249 q 211 153 179 178 q 281 117 243 129 q 358 106 318 106 q 488 135 425 106 q 546 176 518 151 q 594 231 574 200 q 648 375 643 297 q 615 517 653 453 q 567 575 593 553 q 510 608 540 597 q 447 624 481 619 q 378 628 414 628 q 383 668 379 651 q 403 692 388 685 q 419 697 413 697 m 142 360 q 145 399 143 379 q 150 438 147 418 q 157 509 153 474 q 164 581 161 544 q 172 653 168 618 q 187 721 176 688 q 217 785 197 754 q 271 844 236 815 q 409 907 336 899 q 542 888 482 915 q 639 801 603 860 q 667 663 675 743 l 469 663 q 449 705 471 690 q 401 706 426 719 q 379 687 386 699 q 369 662 372 675 q 367 635 367 649 q 365 613 367 622 q 438 610 404 613 q 502 596 472 607 q 558 564 532 585 q 606 508 583 543 q 637 374 642 447 q 588 239 632 301 q 481 147 542 176 q 357 119 419 117 l 350 119 l 347 119 q 336 121 343 121 q 331 122 332 121 q 321 124 325 122 q 310 125 315 124 q 299 128 306 126 q 297 128 297 128 q 294 129 296 129 q 292 130 293 129 q 290 131 292 131 q 201 185 238 147 q 149 275 164 224 q 149 278 150 278 q 149 282 149 279 q 146 289 146 285 q 144 297 146 293 q 142 360 140 332 m 510 711 l 615 711 q 563 814 606 776 q 464 858 519 851 q 351 840 408 865 q 256 756 293 815 q 230 699 238 728 q 219 640 222 671 q 213 581 217 611 q 207 522 210 551 q 201 463 204 492 q 194 403 197 433 q 190 344 192 372 q 199 288 189 315 q 269 196 219 225 q 375 169 318 167 q 485 205 432 171 q 568 303 539 239 q 585 419 594 361 q 532 517 575 476 q 481 549 507 539 q 426 563 454 560 q 369 565 399 567 q 310 564 340 564 q 315 608 313 586 q 319 653 317 631 q 331 696 322 676 q 358 733 339 715 q 400 756 378 750 q 444 760 422 763 q 483 744 465 757 q 510 711 500 732 m 490 517 q 553 440 535 489 q 556 336 571 390 q 494 240 539 276 q 399 196 450 204 q 301 208 349 188 q 229 282 253 229 q 217 332 218 307 q 218 385 215 357 q 224 438 221 411 q 229 490 226 464 q 233 531 231 500 q 240 597 236 563 q 249 661 244 631 q 257 703 253 692 q 324 796 278 763 q 420 834 369 829 q 517 815 471 839 q 583 736 563 792 l 526 736 q 488 771 511 758 q 439 785 465 783 q 386 776 413 786 q 338 746 360 767 q 306 699 314 724 q 294 647 297 675 q 289 593 292 619 q 283 539 286 567 l 389 539 q 442 535 417 539 q 490 517 467 531 m 467 279 q 500 323 489 299 q 513 373 511 347 q 504 422 514 399 q 475 463 494 446 q 431 485 454 481 q 381 489 408 489 l 278 489 q 273 438 275 464 q 268 386 271 413 q 267 335 265 358 q 283 289 268 313 q 321 256 299 268 q 369 243 343 244 q 420 251 394 242 q 467 279 446 260 m 458 443 q 481 410 474 429 q 488 372 489 392 q 477 331 486 351 q 451 296 468 311 q 414 274 435 281 q 373 267 393 267 q 335 278 353 268 q 306 304 318 288 q 290 341 292 322 q 290 382 288 360 q 295 424 293 403 q 300 465 297 444 l 383 465 q 424 462 406 465 q 458 443 442 458 m 421 331 q 438 368 438 346 q 424 404 439 390 q 385 415 411 415 q 344 415 360 415 q 342 397 344 408 q 340 375 340 386 q 340 353 339 364 q 347 335 342 342 q 381 317 358 318 q 421 331 403 315 z "},"7":{"ha":660,"x_min":88,"x_max":733,"o":"m 160 949 l 733 949 l 708 706 l 475 79 l 471 79 l 429 0 l 151 0 l 368 592 l 88 592 l 117 863 l 158 938 l 160 949 m 682 708 l 704 922 l 182 922 l 158 697 l 444 697 l 226 104 l 460 104 l 682 708 m 689 907 l 668 710 l 451 118 l 247 118 l 464 710 l 174 710 l 194 907 l 689 907 l 689 907 m 619 717 l 633 858 l 239 858 l 229 760 l 533 760 l 317 167 l 418 167 l 619 717 l 619 717 m 607 833 l 594 719 l 401 192 l 351 192 l 568 783 l 257 783 l 263 833 l 607 833 l 607 833 z "},"8":{"ha":660,"x_min":51,"x_max":706,"o":"m 674 386 q 660 311 671 350 q 629 239 649 272 q 619 225 624 232 q 608 211 614 218 l 583 167 l 578 157 q 467 46 535 86 q 390 12 431 24 q 310 0 350 0 q 231 13 269 0 q 160 46 192 25 q 108 94 132 65 q 71 157 85 124 q 54 228 57 189 q 57 303 51 268 q 70 352 61 329 q 92 397 79 375 l 94 403 l 96 407 l 97 408 l 94 403 l 99 410 l 103 418 l 107 424 l 106 424 l 111 433 q 91 495 97 463 q 85 560 85 528 q 97 631 86 594 q 125 700 107 668 l 129 707 l 150 742 q 171 790 158 768 q 223 856 194 826 q 285 904 251 885 q 446 949 358 949 q 597 904 529 949 q 686 790 658 860 q 702 718 699 757 q 700 643 706 679 q 646 514 690 575 q 667 453 661 486 q 674 386 674 421 m 606 250 q 647 385 644 313 q 641 453 649 421 q 614 514 633 486 q 674 643 663 576 q 677 714 681 679 q 663 781 674 749 q 628 838 650 813 q 579 882 607 863 q 443 924 521 924 q 296 882 364 924 q 194 781 235 844 q 153 643 156 717 q 159 577 151 610 q 185 514 167 544 q 126 385 136 456 q 123 316 119 350 q 138 250 126 282 q 172 192 151 218 q 219 147 192 165 q 357 106 279 106 q 432 116 394 106 q 503 147 469 126 q 560 192 533 165 q 606 250 586 218 m 389 403 q 413 392 403 403 q 419 367 422 382 q 407 341 418 351 q 382 331 396 331 q 357 341 367 331 q 349 367 347 351 q 363 392 351 382 q 389 403 374 403 m 413 628 q 388 638 397 628 q 381 663 378 647 q 393 688 382 678 q 419 697 404 697 q 443 688 433 697 q 451 663 453 678 q 438 638 449 647 q 413 628 426 628 m 440 908 q 570 869 517 908 q 647 772 624 831 q 660 644 671 714 q 597 514 649 575 q 633 383 636 453 q 594 256 629 314 q 497 158 558 197 q 358 119 435 119 q 228 158 282 119 q 152 256 175 197 q 140 383 129 314 q 201 514 150 453 q 167 644 163 575 q 206 773 171 714 q 303 870 242 832 q 440 908 364 908 m 603 617 q 607 733 624 678 q 545 826 592 792 q 436 860 499 860 q 321 826 375 860 q 239 733 267 792 q 218 617 210 676 q 235 562 222 586 q 264 514 249 538 q 226 467 244 490 q 197 411 208 443 q 185 352 186 379 q 193 294 185 325 q 255 203 208 238 q 363 169 301 169 q 479 203 425 169 q 561 294 533 238 q 581 352 576 325 q 582 411 585 379 q 564 467 578 443 q 535 514 550 490 q 574 562 556 538 q 603 617 592 586 m 504 514 q 533 469 519 490 q 553 424 546 447 q 558 374 560 400 q 543 315 557 347 q 472 227 521 261 q 365 193 424 193 q 267 227 308 193 q 214 314 225 261 q 211 374 207 347 q 227 424 215 400 q 257 469 239 447 q 294 514 275 490 q 266 559 279 538 q 247 604 253 581 q 242 654 240 628 q 257 714 243 681 q 328 801 279 768 q 433 835 376 835 q 533 801 492 835 q 586 714 575 768 q 588 654 593 681 q 572 604 583 628 q 542 559 560 581 q 504 514 524 538 m 539 663 q 513 750 544 714 q 428 786 481 786 q 338 750 376 786 q 293 663 299 714 q 297 615 290 638 q 319 575 304 592 q 355 549 333 558 q 401 539 376 539 q 493 575 454 539 q 539 663 532 611 m 507 367 q 481 453 513 418 q 396 489 449 489 q 306 453 344 489 q 261 367 267 418 q 288 279 256 315 q 371 243 319 243 q 463 279 424 243 q 507 367 501 315 m 425 761 q 493 732 467 761 q 515 663 519 703 q 478 593 511 622 q 404 564 446 564 q 338 593 364 564 q 317 663 313 622 q 353 732 321 703 q 425 761 385 761 m 465 663 q 454 697 468 682 q 419 711 440 711 q 385 697 400 711 q 367 663 369 682 q 377 627 364 642 q 410 613 390 613 q 447 627 431 613 q 465 663 463 642 m 394 465 q 462 436 436 465 q 483 367 488 407 q 447 297 479 325 q 374 268 415 268 q 307 297 333 268 q 285 367 281 325 q 322 436 289 407 q 394 465 354 465 m 433 367 q 423 401 436 386 q 389 415 410 415 q 353 401 369 415 q 335 367 338 386 q 345 331 332 346 q 378 317 358 317 q 415 331 399 317 q 433 367 431 346 z "},"9":{"ha":660,"x_min":49,"x_max":706,"o":"m 444 685 q 449 658 450 676 q 447 628 449 640 l 435 628 q 390 636 397 628 q 379 660 379 644 q 392 686 379 674 q 418 697 406 697 q 444 685 436 697 m 699 743 q 703 678 706 708 q 697 615 701 647 l 678 432 q 671 374 675 403 q 659 318 667 346 q 639 263 651 290 q 606 210 626 236 l 581 163 q 549 117 567 139 q 507 75 532 96 q 310 0 417 0 q 207 21 257 0 q 121 78 157 42 q 66 172 83 118 q 56 283 49 225 l 60 319 l 100 396 l 101 406 l 125 406 l 119 417 q 90 495 99 453 q 86 581 82 538 q 124 697 92 640 l 129 708 l 146 736 q 185 811 161 778 q 240 870 208 843 q 306 915 271 897 q 374 940 338 931 q 443 949 410 949 q 531 935 489 949 q 606 897 574 922 q 699 743 682 840 m 671 615 q 677 675 675 646 q 674 736 679 704 q 589 875 657 824 q 520 911 558 899 q 440 924 482 924 q 315 892 375 924 q 255 852 282 876 q 206 797 228 828 q 153 653 158 731 q 186 513 149 576 q 235 453 208 475 q 291 420 261 432 q 354 405 321 408 q 424 401 388 401 l 424 400 q 417 360 421 376 q 397 336 413 343 q 381 331 392 331 q 358 340 369 331 q 349 367 347 350 l 350 381 l 124 381 l 122 367 q 133 262 117 311 q 185 176 149 213 q 262 124 217 142 q 357 106 307 106 q 453 122 406 106 q 540 174 500 139 q 595 234 575 203 q 627 297 615 265 q 643 363 639 329 q 651 432 647 397 l 653 447 l 668 592 l 671 615 m 447 910 l 453 910 l 456 910 q 468 908 464 910 l 472 908 q 477 908 475 908 q 482 907 479 907 q 492 905 488 906 q 501 903 496 904 q 504 901 503 903 l 507 901 l 508 901 q 511 900 510 900 q 514 899 513 900 q 602 844 565 882 q 654 754 639 807 q 657 744 656 749 q 658 733 658 739 q 663 669 664 700 q 658 631 660 650 q 654 593 657 613 q 647 521 651 557 q 639 449 643 485 q 631 376 635 411 q 616 309 626 342 q 586 246 606 276 q 532 186 567 215 q 394 123 467 132 q 260 142 321 114 q 164 228 200 169 q 136 368 128 288 l 333 368 q 338 343 332 354 q 354 326 344 332 q 377 318 364 319 q 403 324 390 317 q 424 342 417 331 q 433 367 431 354 q 437 393 436 381 q 439 417 438 406 q 365 419 400 417 q 301 433 331 422 q 245 465 271 444 q 199 521 219 485 q 167 655 163 582 q 217 792 172 728 q 323 883 261 854 q 447 910 385 913 m 583 390 q 590 449 586 419 q 596 508 593 478 q 602 567 599 538 q 608 626 606 597 q 613 685 611 657 q 604 743 614 714 q 533 835 583 806 q 426 861 483 864 q 316 825 369 858 q 235 728 263 792 q 218 611 208 669 q 271 513 228 553 q 322 479 296 489 q 376 467 349 469 q 433 465 404 464 q 493 467 463 467 q 488 422 490 443 q 483 376 486 400 q 473 333 481 353 q 444 296 465 314 q 403 273 425 279 q 359 269 381 267 q 320 285 338 272 q 293 318 303 297 l 188 318 q 241 215 197 253 q 340 172 285 178 q 453 190 396 165 q 547 275 510 215 q 574 331 567 303 q 583 390 581 358 m 574 539 q 569 497 572 528 q 563 433 567 467 q 556 367 560 399 q 547 326 551 336 q 481 233 526 267 q 383 195 435 200 q 287 214 332 190 q 221 293 242 238 l 278 293 q 315 258 292 269 q 364 244 338 246 q 417 253 390 243 q 465 283 443 263 q 498 331 489 307 q 510 383 507 354 q 515 438 513 411 q 521 490 518 464 l 414 490 q 362 494 386 490 q 314 514 338 499 q 251 590 269 542 q 249 693 232 639 q 309 790 265 753 q 404 835 353 826 q 503 822 456 843 q 575 747 551 801 q 587 697 586 722 q 585 644 588 672 q 579 592 582 618 q 574 539 576 567 m 525 540 q 531 592 528 567 q 536 644 533 618 q 537 695 539 672 q 519 742 535 718 q 482 774 504 763 q 435 788 460 786 q 384 780 410 789 q 336 751 358 771 q 303 707 315 732 q 290 657 292 682 q 298 608 289 632 q 326 568 307 585 q 371 544 349 549 q 421 540 393 540 l 525 540 m 511 647 q 507 607 508 628 q 503 565 506 586 l 419 565 q 380 568 399 565 q 344 586 361 571 q 322 619 329 600 q 316 658 315 638 q 326 698 317 678 q 353 733 336 718 q 431 763 388 765 q 497 725 474 760 q 513 688 511 707 q 511 647 514 669 m 460 614 q 464 655 461 629 q 457 694 467 681 q 423 713 444 713 q 383 699 401 714 q 365 661 367 683 q 381 625 364 639 q 397 617 386 619 q 419 615 407 615 q 442 614 431 614 q 460 614 453 614 z "},"\u0000":{"ha":0,"x_min":0,"x_max":0,"o":""},"\r":{"ha":410,"x_min":0,"x_max":0,"o":""}," ":{"ha":410,"x_min":0,"x_max":0,"o":""},"F":{"ha":660,"x_min":28,"x_max":732,"o":"m 703 671 l 699 671 l 689 653 l 701 653 l 672 375 l 668 375 l 624 296 l 369 296 l 346 79 l 340 79 l 297 0 l 28 0 l 118 863 l 158 938 l 160 949 l 732 949 l 703 671 m 681 697 l 704 924 l 183 924 l 97 106 l 322 106 l 354 401 l 650 401 l 674 628 l 378 628 l 385 697 l 681 697 m 311 121 l 263 121 l 114 121 l 196 910 l 344 910 l 393 910 l 689 910 l 668 713 l 372 713 l 363 614 l 658 614 l 638 417 l 342 417 l 311 121 m 240 861 l 167 169 l 267 169 l 299 465 l 594 465 l 604 565 l 308 565 l 329 763 l 625 763 l 636 861 l 389 861 l 340 861 l 240 861 m 576 540 l 572 490 l 276 490 l 244 194 l 194 194 l 263 836 l 608 836 l 603 786 l 307 786 l 281 540 l 576 540 z "},"P":{"ha":660,"x_min":28,"x_max":710,"o":"m 453 663 q 439 638 450 647 q 414 628 428 628 l 379 628 l 386 697 l 421 697 q 444 688 435 697 q 453 663 454 678 m 640 864 q 694 771 678 822 q 704 661 710 719 q 683 579 699 618 q 643 507 667 540 l 618 464 q 514 351 579 397 q 369 297 449 306 l 346 79 l 340 79 l 299 0 l 28 0 l 118 863 l 160 938 l 161 949 l 447 949 q 555 927 506 949 q 640 864 604 906 m 390 401 q 494 422 444 401 q 582 477 543 442 q 647 560 621 513 q 679 661 672 607 q 622 847 690 771 q 542 903 588 883 q 444 924 497 924 l 183 924 l 97 106 l 324 106 l 356 401 l 390 401 m 382 575 l 383 578 q 382 575 382 575 m 393 910 q 500 901 451 910 q 593 853 549 893 q 652 768 633 818 q 665 663 671 718 q 630 557 658 607 q 553 472 601 507 q 501 441 526 453 q 450 424 476 429 q 397 417 424 418 q 342 415 371 415 l 311 119 l 114 119 l 196 910 l 344 910 l 393 910 m 522 507 q 598 598 572 543 q 614 711 624 653 q 566 808 606 769 q 469 857 526 847 q 428 859 461 858 q 356 860 394 860 q 283 860 317 860 q 242 860 250 860 l 168 169 l 267 169 l 299 465 q 356 464 328 465 q 410 465 383 463 q 465 477 438 468 q 522 507 493 486 m 592 688 q 564 585 593 633 q 485 511 535 538 q 434 494 458 497 q 382 490 410 490 l 276 490 l 244 193 l 196 193 l 264 835 q 303 835 272 835 q 368 835 333 835 q 433 833 403 835 q 471 831 463 832 q 556 780 524 819 q 592 688 589 740 m 440 544 q 509 589 481 556 q 542 663 538 622 q 524 736 546 703 q 465 781 503 769 q 434 785 457 783 q 385 786 411 786 q 338 786 360 786 q 307 786 315 786 l 281 539 q 311 539 289 539 q 359 539 333 539 q 408 540 385 539 q 440 544 431 542 m 517 663 q 490 603 513 629 q 435 568 467 578 q 410 565 428 565 q 372 564 392 564 q 333 564 351 564 q 308 564 315 564 l 329 761 q 354 761 336 761 q 392 761 372 761 q 431 760 413 761 q 456 757 449 758 q 503 721 486 747 q 517 663 519 694 m 468 663 q 460 692 469 679 q 436 710 451 706 q 405 714 421 715 q 372 713 389 713 l 363 614 q 394 612 379 614 q 426 615 410 610 q 453 633 442 619 q 468 663 465 646 z "},"E":{"ha":660,"x_min":25,"x_max":732,"o":"m 703 672 l 696 672 l 686 651 l 701 651 l 672 376 l 665 376 l 654 356 l 669 356 l 640 79 l 633 79 l 592 0 l 25 0 l 115 863 l 157 936 l 158 949 l 732 949 l 703 672 m 679 697 l 703 922 l 181 922 l 94 106 l 617 106 l 642 331 l 346 331 l 353 401 l 649 401 l 672 626 l 376 626 l 383 697 l 679 697 m 624 317 l 604 119 l 308 119 l 258 119 l 110 119 l 192 908 l 340 908 l 390 908 l 686 908 l 665 711 l 369 711 l 360 613 l 656 613 l 635 415 l 339 415 l 328 317 l 624 317 l 624 317 m 558 168 l 569 267 l 274 267 l 294 465 l 590 465 l 600 564 l 304 564 l 325 761 l 621 761 l 632 860 l 386 860 l 336 860 l 238 860 l 164 168 l 263 168 l 313 168 l 558 168 l 558 168 m 543 243 l 538 193 l 315 193 l 265 193 l 192 193 l 260 835 l 333 835 l 383 835 l 606 835 l 600 785 l 303 785 l 276 539 l 574 539 l 568 489 l 271 489 l 246 243 l 543 243 l 543 243 z "},"O":{"ha":660,"x_min":50,"x_max":701,"o":"m 682 794 q 697 728 693 763 q 697 649 701 693 l 668 381 q 653 299 664 335 q 622 232 642 264 q 613 219 617 225 q 604 207 610 214 l 572 150 q 457 40 528 81 q 307 0 386 0 q 164 40 226 0 q 72 150 101 81 q 54 218 58 183 q 54 297 50 253 l 82 565 q 96 637 86 606 q 122 697 106 668 l 144 739 q 158 768 151 754 q 174 796 164 782 q 291 908 219 867 q 443 949 363 949 q 586 907 522 949 q 682 794 650 865 m 672 649 q 672 722 676 689 q 657 783 668 754 q 571 886 629 849 q 440 924 513 924 q 301 886 365 924 q 196 783 236 849 q 151 649 160 726 l 122 381 q 122 306 118 339 q 139 244 126 274 q 222 142 165 179 q 354 106 279 106 q 492 142 426 106 q 600 244 558 179 q 628 306 618 274 q 643 381 639 339 l 672 649 m 418 379 q 414 356 417 364 q 401 339 411 347 q 379 331 393 331 q 355 340 365 331 q 346 367 344 350 l 376 649 q 381 673 378 664 q 393 689 383 682 q 403 694 399 692 q 415 697 408 697 q 440 688 429 697 q 449 663 450 679 l 418 379 m 656 633 q 642 500 649 567 q 628 367 635 433 q 576 235 619 292 q 473 148 533 178 q 345 119 413 118 q 221 163 278 121 q 144 268 164 204 q 134 331 133 300 q 138 394 135 363 q 152 528 144 461 q 167 663 160 596 q 218 794 175 738 q 321 881 261 850 q 449 909 381 911 q 574 865 517 907 q 650 760 628 825 q 660 697 660 728 q 656 633 660 667 m 604 596 q 610 653 607 625 q 610 707 613 681 q 596 758 607 733 q 563 807 585 783 q 463 858 519 851 q 353 844 406 865 q 261 774 300 822 q 215 663 222 726 l 190 433 q 185 376 188 404 q 185 322 182 347 q 198 271 188 296 q 231 222 208 246 q 331 170 274 178 q 441 185 388 163 q 533 254 494 207 q 579 367 572 301 l 604 596 m 556 775 q 580 728 574 751 q 586 679 586 704 q 583 628 586 654 q 576 576 579 603 q 566 472 571 524 q 554 367 561 419 q 510 264 547 306 q 424 204 474 222 q 324 197 375 186 q 239 253 274 207 q 214 301 221 276 q 207 350 207 325 q 211 401 207 375 q 218 453 215 426 q 228 558 224 506 q 240 663 233 610 q 283 765 246 722 q 369 824 321 807 q 469 831 418 842 q 556 775 521 821 m 492 321 q 501 356 497 332 q 508 407 506 381 q 514 457 511 433 q 518 492 517 481 q 526 577 522 535 q 536 663 531 619 q 515 745 542 714 q 448 784 488 776 q 367 773 408 792 q 303 707 326 754 q 292 672 297 696 q 285 622 288 649 q 280 572 282 596 q 276 538 278 549 q 268 452 272 494 q 258 367 264 410 q 280 284 253 315 q 346 245 307 253 q 426 256 385 238 q 492 321 468 274 m 496 511 q 489 435 492 472 q 479 360 486 397 q 456 307 474 328 q 416 276 439 286 q 368 267 393 267 q 323 280 343 268 q 291 313 303 292 q 282 367 279 335 q 290 442 286 404 q 299 518 294 479 q 305 594 301 556 q 315 669 308 632 q 357 740 324 717 q 426 761 390 763 q 490 735 463 760 q 513 663 517 710 q 504 586 508 624 q 496 511 500 549 m 410 329 q 428 353 425 340 q 432 381 431 365 q 435 409 435 396 q 439 436 436 422 q 450 550 444 494 q 463 663 456 606 q 438 708 465 694 q 383 700 411 721 q 367 676 369 689 q 361 647 364 663 q 359 620 360 633 q 356 592 358 607 q 344 479 350 535 q 332 367 339 424 q 338 338 331 350 q 356 321 344 326 q 383 317 368 315 q 410 329 397 318 z "},"K":{"ha":660,"x_min":21,"x_max":750,"o":"m 489 514 q 531 408 508 464 q 574 296 553 353 q 617 184 596 239 q 658 79 639 129 l 650 79 l 608 0 l 306 0 l 297 17 l 289 0 l 21 0 l 111 861 l 151 936 l 153 947 l 429 947 l 428 928 q 434 938 431 932 q 439 947 438 943 l 750 947 l 489 514 m 460 514 l 706 922 l 453 922 l 389 815 l 400 922 l 175 922 l 89 104 l 314 104 l 325 211 l 367 104 l 619 104 l 460 514 m 683 908 l 446 514 l 601 119 l 382 119 l 321 272 l 306 119 l 108 119 l 128 317 l 190 908 l 339 908 l 388 908 l 372 757 l 464 908 l 683 908 m 392 514 l 600 860 l 490 860 l 301 546 l 335 860 l 236 860 l 163 168 l 261 168 l 294 482 l 417 168 l 526 168 l 392 514 m 558 835 l 364 514 l 490 193 l 435 193 l 308 514 l 503 835 l 558 835 m 278 567 l 239 193 l 189 193 l 257 835 l 307 835 l 281 588 l 278 567 z "},"S":{"ha":660,"x_min":50,"x_max":710,"o":"m 663 476 q 672 364 679 424 q 608 210 664 278 l 586 169 q 518 85 561 122 q 313 0 426 0 q 210 21 260 0 q 124 78 160 42 q 67 170 85 117 q 57 283 50 224 l 61 319 l 101 394 l 103 406 l 129 406 q 97 472 107 439 q 88 582 81 525 q 124 694 92 639 l 146 735 q 183 803 161 771 q 236 864 204 836 q 335 927 282 906 q 444 949 389 949 q 550 928 500 949 q 636 871 600 908 q 693 777 676 831 q 703 663 710 724 l 699 622 l 693 622 l 650 543 l 628 543 q 663 476 650 514 m 550 182 q 638 316 614 240 q 638 467 661 392 q 554 585 614 542 q 414 628 494 628 q 393 635 400 628 q 383 650 386 642 q 383 667 381 657 q 394 688 385 678 q 408 696 401 694 q 419 697 415 697 q 444 688 433 697 q 453 663 454 679 l 451 649 l 676 649 l 678 663 q 617 853 689 776 q 538 905 583 886 q 442 924 492 924 q 342 904 392 924 q 251 847 292 885 q 166 714 189 789 q 165 564 143 639 q 248 444 188 488 q 390 401 308 401 q 410 394 403 401 q 419 381 417 388 q 421 362 422 372 q 408 342 419 351 q 395 333 401 335 q 383 332 389 332 q 360 341 369 332 q 351 367 350 350 l 353 381 l 126 381 l 125 367 q 135 262 119 311 q 188 176 151 213 q 265 124 219 142 q 360 106 310 106 q 550 182 465 106 m 664 665 l 467 665 q 453 703 469 689 q 413 714 436 718 q 376 688 389 708 q 368 646 363 668 q 398 617 378 618 q 440 614 418 615 q 482 606 463 611 q 521 589 501 600 q 585 535 560 568 q 624 463 611 503 q 633 379 636 424 q 613 292 631 335 q 562 215 593 249 q 492 158 531 181 q 409 127 453 136 q 321 125 365 118 q 241 154 276 132 q 181 208 206 176 q 146 281 157 240 q 139 368 135 322 l 336 368 q 350 330 333 344 q 390 321 367 315 q 427 345 414 325 q 433 388 440 365 q 422 408 429 401 q 405 416 414 414 q 385 418 396 418 q 363 419 374 418 q 282 444 319 425 q 217 498 243 465 q 179 570 192 531 q 169 653 167 610 q 190 742 171 697 q 240 819 208 785 q 310 875 271 853 q 392 906 349 897 q 481 908 436 915 q 561 879 525 901 q 622 825 597 857 q 657 752 646 793 q 664 665 668 711 m 508 714 l 614 714 q 585 788 607 756 q 529 838 563 819 q 456 861 496 857 q 374 853 415 865 q 299 811 332 839 q 246 747 265 783 q 220 670 226 711 q 226 590 214 629 q 328 481 250 511 q 365 472 346 474 q 403 467 383 469 q 469 429 447 465 q 482 353 493 394 q 432 288 471 311 q 353 273 394 264 q 296 319 313 282 l 190 319 q 218 246 196 278 q 273 195 240 214 q 346 172 306 176 q 428 182 386 168 q 503 224 469 196 q 556 287 536 251 q 583 363 576 322 q 576 443 589 403 q 475 553 553 522 q 438 562 457 560 q 399 567 418 564 q 332 604 356 568 q 318 641 321 621 q 321 681 315 661 q 339 717 326 700 q 371 747 351 735 q 449 761 408 771 q 508 714 489 751 m 581 739 l 522 739 q 463 784 500 775 q 390 781 426 793 q 325 738 353 769 q 293 663 297 707 q 310 590 290 622 q 368 547 331 558 q 405 541 386 540 q 440 538 424 542 q 478 525 461 533 q 510 503 494 517 q 551 441 539 476 q 558 368 563 406 q 533 294 554 331 q 478 233 513 258 q 403 199 442 207 q 328 200 364 192 q 265 233 293 208 q 222 294 236 257 l 279 294 q 340 249 303 258 q 414 252 378 240 q 478 295 450 264 q 510 371 506 326 q 492 443 513 411 q 435 486 471 475 q 399 492 417 493 q 361 496 381 492 q 325 509 342 501 q 294 531 308 517 q 253 592 265 557 q 244 665 240 628 q 269 739 249 703 q 324 800 289 775 q 398 834 358 826 q 474 833 438 842 q 538 801 510 825 q 581 739 567 776 z "},"L":{"ha":592,"x_min":26,"x_max":604,"o":"m 375 357 l 604 357 l 574 79 l 568 79 l 526 0 l 26 0 l 117 863 l 158 938 l 160 950 l 436 950 l 375 357 m 551 106 l 576 332 l 347 332 l 408 924 l 182 924 l 96 106 l 551 106 m 561 318 l 540 121 l 310 121 l 113 121 l 133 318 l 194 911 l 392 911 l 331 318 l 561 318 l 561 318 m 494 171 l 506 269 l 276 269 l 339 861 l 240 861 l 183 318 l 172 219 l 167 171 l 494 171 l 494 171 m 478 244 l 472 194 l 194 194 l 263 836 l 311 836 l 249 244 l 478 244 l 478 244 z "},"!":{"ha":400,"x_min":54,"x_max":453,"o":"m 382 326 l 364 292 q 375 256 371 275 q 376 218 379 238 q 364 172 374 194 q 339 133 354 150 l 314 90 l 313 90 l 314 90 l 310 81 q 256 22 290 44 q 178 0 221 0 q 126 10 150 0 q 86 40 103 21 q 62 83 69 58 q 57 135 54 107 q 63 163 58 150 q 74 189 67 176 l 104 246 l 104 247 l 68 247 l 133 863 l 174 938 l 175 949 l 453 949 l 388 326 l 382 326 m 225 106 q 309 138 272 106 q 351 218 346 171 q 347 261 354 240 q 326 297 340 282 q 293 322 313 313 q 250 331 274 331 q 206 322 226 331 q 167 297 185 313 q 139 261 150 282 q 125 218 128 240 q 149 138 119 171 q 225 106 179 106 m 425 924 l 199 924 l 139 351 l 365 351 l 425 924 m 408 908 l 351 367 l 154 367 l 211 908 l 408 908 m 307 415 l 354 860 l 256 860 l 208 415 l 307 415 m 247 317 q 314 288 288 317 q 336 218 340 258 q 300 149 332 178 q 228 119 268 119 q 160 149 186 119 q 139 218 135 178 q 174 288 143 258 q 247 317 206 317 m 286 218 q 276 253 289 239 q 243 268 263 268 q 206 253 222 268 q 188 218 190 239 q 198 183 185 197 q 232 168 211 168 q 267 183 251 168 q 286 218 283 197 m 326 835 l 285 440 l 236 440 l 278 835 l 326 835 m 240 243 q 256 236 250 243 q 261 218 263 229 q 252 200 260 207 q 235 193 244 193 q 217 200 224 193 q 213 218 211 207 q 222 236 214 229 q 240 243 229 243 z "},"?":{"ha":660,"x_min":85,"x_max":717,"o":"m 600 901 q 690 788 663 857 q 701 638 717 719 q 643 508 686 564 l 622 469 l 622 472 l 617 463 q 525 357 581 397 l 521 326 l 515 326 l 496 290 q 510 218 514 260 q 471 132 506 168 l 444 81 q 389 22 425 44 q 313 0 353 0 q 260 10 283 0 q 219 39 236 21 q 195 82 203 57 q 190 135 188 107 q 208 189 192 161 l 238 246 l 238 247 l 201 247 l 219 417 q 242 490 224 456 l 269 542 l 85 542 l 89 579 q 125 696 96 640 l 149 738 q 186 807 164 774 q 240 868 208 840 q 339 928 285 907 q 449 949 393 949 q 600 901 532 949 m 360 104 q 403 113 382 104 q 442 138 425 122 q 471 174 460 153 q 485 218 482 194 q 460 297 490 264 q 385 331 431 331 q 300 297 336 331 q 258 218 264 264 q 282 137 253 169 q 360 104 311 104 m 676 639 q 666 776 690 713 q 583 879 642 839 q 446 922 521 922 q 347 903 396 922 q 257 850 297 885 q 158 661 169 772 l 156 646 l 381 646 l 383 661 q 397 688 385 679 q 422 697 408 697 q 437 694 428 697 q 451 675 446 690 q 451 652 456 664 q 436 633 447 640 q 422 626 429 628 q 404 624 414 625 q 390 623 397 624 q 374 618 383 622 q 288 500 299 593 l 272 351 l 499 351 l 507 426 q 618 513 574 457 q 676 639 663 568 m 660 539 l 661 542 q 660 539 660 539 m 567 761 q 590 678 590 724 q 568 592 590 633 q 504 522 542 543 q 422 482 467 500 l 418 438 l 369 438 q 371 476 371 457 q 376 514 371 494 q 387 532 379 528 q 406 536 394 536 q 425 538 417 536 q 444 543 433 540 q 509 588 483 556 q 539 660 535 619 q 522 735 543 704 q 467 776 500 765 q 394 778 433 788 q 325 733 356 768 l 268 733 q 334 802 293 778 q 418 831 375 826 q 501 817 461 835 q 567 761 542 800 m 574 865 q 651 763 631 825 q 660 638 672 701 q 604 519 647 575 q 490 433 561 463 l 483 363 l 286 363 q 293 431 289 397 q 300 497 297 464 q 321 561 304 533 q 375 604 338 589 q 408 609 392 610 q 442 619 425 608 q 463 647 457 631 q 464 679 469 664 q 442 704 457 697 q 411 708 428 711 q 381 692 394 704 q 367 660 368 679 l 169 660 q 220 790 178 733 q 322 876 263 846 q 448 906 381 907 q 574 865 515 906 m 600 607 q 613 710 621 658 q 571 799 604 761 q 484 851 535 839 q 384 849 433 863 q 292 800 335 836 q 231 708 250 764 l 336 708 q 400 756 363 747 q 468 749 438 764 q 513 700 499 733 q 506 624 526 667 q 482 592 494 604 q 450 571 469 579 q 414 561 433 564 q 396 559 404 560 q 378 553 388 558 q 353 522 356 539 q 349 486 351 506 q 345 449 346 467 q 342 413 344 432 l 440 413 l 446 465 q 496 489 472 476 q 539 517 519 501 q 574 555 558 533 q 600 607 589 576 m 379 314 q 447 285 421 314 q 468 215 472 256 q 432 146 464 175 q 358 117 400 117 q 292 146 318 117 q 271 215 267 175 q 307 285 275 256 q 379 314 339 314 m 419 215 q 408 250 422 236 q 374 264 394 264 q 339 250 354 264 q 321 215 324 236 q 331 180 318 194 q 364 165 344 165 q 401 180 385 165 q 419 215 417 194 m 372 240 q 390 233 383 240 q 394 215 396 226 q 385 197 393 204 q 367 190 378 190 q 350 197 356 190 q 346 215 344 204 q 354 233 347 226 q 372 240 361 240 z "},"C":{"ha":660,"x_min":51,"x_max":706,"o":"m 382 464 q 381 453 381 458 q 379 443 381 449 l 378 424 q 374 395 375 408 q 372 365 374 382 q 375 361 372 364 l 394 394 l 396 407 l 672 407 l 668 365 q 604 208 660 279 l 582 169 q 467 47 542 94 q 307 0 393 0 q 265 3 286 0 q 225 14 244 7 q 117 80 161 33 q 58 190 74 126 q 52 252 51 222 q 56 315 53 282 l 81 547 q 89 611 83 582 q 108 672 94 640 l 118 692 l 143 738 q 147 746 146 742 q 151 757 149 750 q 237 866 179 818 q 357 936 294 914 q 443 949 399 949 q 551 926 501 949 q 637 865 601 904 q 689 774 672 826 q 700 663 706 722 l 696 622 l 690 622 l 647 543 l 392 543 l 388 515 q 385 501 388 510 l 382 464 m 367 565 q 372 615 369 589 q 379 665 374 640 q 392 690 382 681 q 418 699 403 699 q 441 688 432 697 q 449 663 450 678 l 447 649 l 674 649 l 675 663 q 665 764 681 717 q 617 847 649 811 q 540 903 585 882 q 440 924 494 924 q 363 911 400 924 q 251 850 300 893 q 175 749 203 807 q 157 691 163 719 q 149 631 151 663 l 125 399 q 120 338 121 367 q 126 281 119 310 q 181 178 142 222 q 279 118 221 135 q 354 104 318 104 q 458 125 408 104 q 547 181 507 146 q 612 264 586 217 q 643 365 638 311 l 644 381 l 418 381 l 417 365 q 405 342 415 351 q 381 331 394 332 q 356 340 365 331 q 347 364 347 349 q 351 414 349 389 q 357 464 353 439 q 360 489 358 476 q 363 515 361 501 q 365 540 365 528 q 367 565 365 551 m 661 663 l 464 663 q 453 697 467 683 q 421 713 440 711 q 385 700 401 714 q 365 667 368 686 q 356 591 358 629 q 349 515 353 553 q 340 440 346 478 q 333 364 335 401 q 347 327 332 339 q 379 316 361 315 q 413 329 397 317 q 432 367 429 342 l 626 367 l 629 367 q 590 253 622 304 q 508 168 557 201 q 401 124 460 135 q 285 132 343 113 q 193 190 231 149 q 142 286 156 231 q 136 342 135 314 q 140 399 138 369 q 146 457 143 428 q 151 515 149 486 l 164 632 q 172 688 167 660 q 190 744 176 717 q 261 840 214 800 q 367 899 308 881 q 483 906 428 917 q 581 861 539 894 q 644 776 622 828 q 661 663 667 725 m 504 713 l 610 713 q 576 794 603 760 q 512 845 550 828 q 428 861 474 863 q 338 836 382 860 q 265 776 296 814 q 222 694 235 739 q 217 660 219 686 q 210 604 214 633 q 204 549 207 575 q 200 515 201 524 q 197 481 200 507 q 192 425 194 454 q 187 370 189 396 q 185 336 185 344 q 210 253 188 290 q 269 194 232 217 q 354 169 308 171 q 442 185 400 168 q 518 237 483 203 q 569 318 553 271 l 464 318 q 424 281 447 293 q 375 268 400 268 q 328 280 350 268 q 293 315 306 292 q 283 363 281 339 q 289 414 286 388 q 294 465 292 439 q 299 515 296 490 q 304 566 301 540 q 310 617 307 592 q 315 667 313 643 q 336 715 317 692 q 377 751 353 739 q 426 762 401 763 q 472 749 450 761 q 504 713 493 736 m 578 738 l 519 738 q 479 774 504 763 q 426 786 454 786 q 372 774 399 786 q 324 738 344 763 q 296 685 301 711 q 288 629 290 658 q 281 572 285 601 q 275 515 278 543 q 269 458 272 488 q 264 401 267 429 q 260 346 261 372 q 278 293 260 319 q 318 256 293 268 q 371 244 343 244 q 426 256 399 244 q 474 293 453 268 l 532 293 q 476 232 510 256 q 406 199 443 208 q 332 197 369 190 q 264 229 294 204 q 221 288 235 253 q 210 361 207 322 q 217 438 213 400 q 225 515 222 476 q 233 592 229 554 q 242 668 236 631 q 269 742 247 708 q 324 800 290 776 q 398 832 358 825 q 473 831 438 839 q 536 799 508 822 q 578 738 564 775 z "},"U":{"ha":660,"x_min":53,"x_max":732,"o":"m 732 947 l 672 379 q 656 299 668 335 q 624 232 643 264 q 614 217 618 224 q 606 203 610 210 l 582 163 l 575 150 q 460 40 532 79 q 310 0 389 0 q 167 40 231 0 q 74 150 103 79 q 56 217 58 182 q 57 297 53 253 l 117 861 l 158 936 l 160 947 l 436 947 l 431 893 l 453 936 l 454 947 l 732 947 m 703 921 l 478 921 l 421 381 q 406 338 418 347 q 379 329 394 329 q 357 338 367 329 q 350 381 347 347 l 407 921 l 182 921 l 125 379 q 140 243 117 300 q 226 141 168 178 q 356 104 283 104 q 497 141 431 104 q 603 243 563 178 q 632 306 622 274 q 646 379 642 339 l 703 921 m 638 443 q 632 385 635 414 q 622 330 629 357 q 602 275 615 303 q 567 221 589 247 q 472 146 526 172 q 358 119 418 119 q 248 146 299 119 q 168 221 197 172 q 137 329 136 275 q 144 443 138 383 q 169 676 157 561 q 193 908 182 792 l 390 908 l 365 663 q 362 638 363 650 q 360 613 361 625 q 352 544 356 578 q 344 475 349 510 q 340 428 342 451 q 335 382 338 406 q 339 337 332 357 q 378 317 346 317 q 419 337 408 317 q 433 382 431 357 q 438 428 436 406 q 443 475 440 451 q 451 553 447 515 q 460 632 456 592 q 462 647 461 639 q 464 663 463 654 l 489 908 l 686 908 q 663 676 675 792 q 638 443 650 561 m 540 263 q 566 310 557 286 q 580 359 575 335 q 586 408 585 383 q 590 457 588 432 q 612 658 601 558 q 633 860 622 758 l 535 860 l 514 663 l 510 632 q 499 534 504 583 q 490 436 494 485 q 488 411 489 426 q 484 381 486 396 q 478 350 482 365 q 468 325 474 335 q 427 283 453 299 q 374 267 401 267 q 322 283 344 267 q 289 325 299 299 q 285 350 285 335 q 286 381 285 365 q 290 412 288 397 q 293 436 292 426 q 301 524 297 481 q 311 613 306 568 l 317 663 l 338 860 l 238 860 q 216 658 226 758 q 194 457 206 558 q 184 359 189 407 q 204 263 179 311 q 269 193 228 218 q 363 168 310 168 q 461 193 414 168 q 540 263 508 218 m 567 465 q 557 374 563 425 q 526 283 551 322 q 456 217 499 242 q 365 193 413 193 q 279 217 317 193 q 222 283 242 242 q 211 374 206 324 q 221 465 217 425 q 240 649 231 557 q 260 835 249 742 l 310 835 l 292 663 l 286 613 l 265 417 q 260 357 263 386 q 272 299 257 328 q 313 258 288 272 q 371 243 339 243 q 431 258 403 243 q 479 299 460 272 q 505 357 501 328 q 511 417 508 386 q 522 524 517 471 q 533 632 528 578 l 538 663 l 556 835 l 606 835 q 585 649 594 742 q 567 465 576 557 z "},"A":{"ha":660,"x_min":26,"x_max":701,"o":"m 378 642 q 385 676 378 663 q 399 693 392 689 q 419 697 406 697 q 439 693 432 697 q 450 676 446 689 q 449 642 453 663 l 447 626 l 436 528 l 365 528 l 376 626 l 378 642 m 671 819 q 701 712 700 764 q 696 611 701 660 l 639 79 l 633 79 l 592 0 l 322 0 l 328 60 l 296 0 l 26 0 l 72 446 q 76 483 75 464 q 79 521 76 503 q 88 588 83 558 q 96 629 92 618 l 96 631 q 124 696 106 663 l 129 707 l 131 708 l 129 708 l 151 747 q 205 832 172 792 q 276 897 238 872 q 358 935 317 924 q 444 947 400 947 q 577 915 518 947 q 671 819 636 882 m 671 611 q 675 708 675 658 q 647 806 675 757 q 563 892 617 861 q 442 922 508 922 q 290 876 361 922 q 211 804 244 849 q 163 708 178 760 q 151 637 157 689 q 140 528 146 585 l 139 510 l 96 106 l 321 106 l 342 303 l 413 303 l 392 106 l 617 106 l 671 611 m 636 414 l 604 118 l 407 118 l 428 315 l 329 315 l 308 118 l 111 118 l 153 510 q 157 549 154 521 q 163 608 160 576 q 171 667 167 639 q 178 706 175 694 q 222 796 192 754 q 297 865 253 838 q 393 903 343 894 q 489 903 443 913 q 574 867 535 894 q 636 797 613 840 q 661 706 660 753 q 657 610 663 660 q 653 574 654 592 q 649 538 651 557 l 636 414 m 604 569 q 614 669 610 621 q 593 765 618 717 q 530 834 572 810 q 436 858 488 858 q 337 834 383 858 q 258 765 290 810 q 231 717 240 740 q 218 669 222 693 q 213 619 214 644 q 208 569 211 594 q 187 369 197 469 q 165 168 176 268 l 264 168 l 285 365 l 483 365 l 463 168 l 561 168 q 583 369 572 268 q 604 569 593 469 m 576 744 q 588 653 593 704 q 578 563 582 603 q 558 377 568 469 q 539 193 549 285 l 489 193 l 510 390 l 264 390 l 243 193 l 193 193 q 213 377 203 285 q 232 563 222 469 q 242 653 236 603 q 272 744 247 704 q 343 810 300 786 q 435 833 386 833 q 519 810 482 833 q 576 744 557 786 m 515 439 l 536 647 q 516 744 543 704 q 429 785 489 785 q 333 744 368 785 q 290 647 297 704 l 269 439 l 515 439 m 513 640 q 503 552 508 596 q 494 464 499 508 l 296 464 q 305 552 300 508 q 314 640 310 596 q 322 684 317 664 q 344 724 326 704 q 381 751 363 743 q 426 760 400 760 q 468 751 451 760 q 499 724 485 743 q 514 684 513 704 q 513 640 515 664 m 461 626 q 465 653 463 640 q 463 682 468 667 q 421 711 453 711 q 392 704 403 711 q 372 682 382 697 q 365 653 365 667 q 363 626 364 640 q 356 570 360 599 q 350 513 353 542 l 449 513 q 455 570 451 542 q 461 626 458 599 z "},"Z":{"ha":660,"x_min":17,"x_max":746,"o":"m 707 682 l 671 615 l 461 356 l 683 356 l 654 79 l 649 79 l 607 0 l 17 0 l 44 269 l 88 346 l 88 356 l 106 356 l 232 511 l 296 593 l 78 593 l 107 863 l 150 939 l 150 950 l 746 950 l 719 697 l 707 682 m 657 331 l 393 331 l 696 707 l 718 924 l 172 924 l 149 697 l 413 697 l 118 331 l 111 331 l 86 106 l 632 106 l 657 331 m 639 319 l 618 122 l 101 122 l 122 319 l 122 319 l 440 714 l 164 714 l 183 911 l 700 911 l 681 714 l 363 319 l 639 319 l 639 319 m 572 171 l 583 269 l 263 269 l 632 729 l 646 863 l 228 863 l 217 764 l 539 764 l 168 303 l 154 171 l 572 171 l 572 171 m 557 246 l 551 196 l 182 196 l 193 296 l 589 789 l 244 789 l 250 838 l 619 838 l 608 738 l 213 246 l 557 246 l 557 246 z "},"X":{"ha":701,"x_min":11,"x_max":788,"o":"m 642 268 l 696 79 l 688 79 l 646 0 l 356 0 l 336 63 l 303 0 l 11 0 l 50 79 l 228 431 q 197 537 213 482 q 165 647 181 592 q 132 758 149 703 q 101 863 115 813 l 144 940 l 142 949 l 440 949 l 458 890 l 488 949 l 788 949 l 567 514 l 642 268 m 661 104 l 540 514 l 747 924 l 503 924 l 451 818 l 421 924 l 176 924 l 297 514 l 90 104 l 335 104 l 388 210 l 417 104 l 661 104 m 725 911 l 526 517 l 643 121 l 431 121 l 392 250 l 328 121 l 115 121 l 314 517 l 197 911 l 410 911 l 449 782 l 513 911 l 725 911 m 474 517 l 649 861 l 542 861 l 435 649 l 372 861 l 265 861 l 368 517 l 192 171 l 299 171 l 407 383 l 468 171 l 575 171 l 474 517 m 608 838 l 447 517 l 540 196 l 488 196 l 414 450 l 285 196 l 231 196 l 394 517 l 299 838 l 353 838 l 428 583 l 556 838 l 608 838 z "},"V":{"ha":660,"x_min":111,"x_max":739,"o":"m 457 949 l 739 949 l 511 79 l 504 79 l 463 0 l 156 0 l 111 863 l 154 940 l 154 949 l 433 949 l 436 903 l 453 932 l 457 949 m 492 106 l 707 924 l 476 924 l 421 703 l 408 924 l 179 924 l 222 106 l 492 106 m 688 911 l 481 122 l 236 122 l 194 911 l 394 911 l 410 614 l 488 911 l 688 911 l 688 911 m 443 171 l 625 863 l 525 863 l 376 297 l 347 863 l 247 863 l 283 171 l 443 171 l 443 171 m 594 838 l 425 196 l 375 196 l 357 196 l 307 196 l 274 838 l 324 838 l 354 258 l 392 258 l 544 838 l 594 838 l 594 838 z "},"J":{"ha":660,"x_min":46,"x_max":729,"o":"m 729 949 l 672 399 q 663 335 668 365 q 643 272 657 304 q 601 207 628 240 l 589 182 l 583 172 q 501 74 553 117 q 392 13 450 32 q 306 0 347 0 q 199 22 247 0 q 115 83 150 44 q 63 173 81 121 q 53 283 46 225 l 57 319 l 99 396 l 100 406 l 361 406 l 410 863 l 450 938 l 451 949 l 729 949 m 700 924 l 474 924 l 447 665 l 431 514 q 429 490 429 503 q 428 464 429 476 q 423 415 425 440 q 415 364 421 389 q 403 340 414 350 q 376 332 392 331 q 353 342 363 332 q 346 367 344 351 l 347 381 l 122 381 l 121 367 q 131 265 115 313 q 177 181 146 217 q 253 126 208 146 q 353 106 299 106 q 392 108 372 106 q 432 117 413 110 q 543 178 494 136 q 619 281 592 221 q 638 338 632 308 q 646 399 643 367 l 700 924 m 589 182 l 583 172 q 585 177 585 175 q 589 182 586 179 m 629 254 l 629 251 l 631 260 q 630 258 631 258 q 629 254 629 257 m 651 581 q 643 499 647 540 q 635 417 639 457 q 623 335 631 374 q 592 256 615 296 q 506 165 556 197 q 404 124 457 133 q 301 128 351 115 q 211 172 250 140 q 151 253 172 204 q 136 368 129 303 l 139 368 l 333 368 q 347 329 331 344 q 388 319 364 314 q 425 346 413 324 q 433 366 432 357 q 435 386 433 375 q 444 474 439 431 q 453 561 449 517 q 472 735 463 649 q 489 910 481 822 l 686 910 q 669 745 678 826 q 651 581 661 664 m 572 329 q 580 378 575 339 q 590 462 585 417 q 599 546 594 507 q 603 594 603 585 l 632 861 l 533 861 q 513 673 522 767 q 493 485 504 579 q 488 438 490 461 q 483 390 486 414 q 476 345 481 367 q 450 303 471 324 q 409 275 432 283 q 363 269 386 267 q 322 283 340 271 q 293 318 303 296 l 188 318 q 222 234 194 267 q 286 185 249 201 q 367 171 324 169 q 451 190 411 172 q 524 243 492 208 q 572 329 557 278 m 606 836 l 556 369 q 528 288 550 322 q 474 230 506 253 q 403 199 442 207 q 329 197 365 190 q 264 228 293 204 q 219 293 235 251 l 276 293 q 353 245 304 253 q 447 269 403 238 q 503 351 490 299 q 510 399 510 375 q 514 447 511 424 q 535 642 525 546 q 556 836 544 739 l 606 836 z "},"W":{"ha":961,"x_min":54,"x_max":1031,"o":"m 999 639 q 994 594 996 615 q 990 549 993 572 q 985 502 988 525 q 979 457 982 479 l 969 365 q 949 286 965 325 q 910 213 933 247 l 883 167 q 811 79 857 119 q 715 21 768 42 q 608 0 663 0 q 465 43 526 0 q 313 0 393 0 q 209 21 258 0 q 124 79 160 42 q 71 172 88 118 q 58 283 54 226 q 67 370 63 324 q 76 465 71 417 q 85 559 81 513 q 94 646 90 606 l 104 736 q 110 782 107 760 q 115 826 113 804 l 119 863 l 163 939 l 163 949 l 439 949 l 433 894 l 458 939 l 458 949 l 735 949 l 729 894 l 754 939 l 754 949 l 1031 949 l 999 639 m 943 365 q 964 548 954 457 q 982 729 974 639 l 1000 910 l 1001 924 l 776 924 l 721 383 q 706 342 717 350 q 681 333 694 333 q 656 342 667 333 q 650 383 646 350 l 706 924 l 481 924 l 425 383 q 410 342 421 350 q 383 333 399 333 q 360 342 371 333 q 354 383 350 350 l 410 924 l 185 924 l 183 910 q 174 819 179 864 q 164 729 168 774 q 144 548 154 639 q 126 365 135 457 q 137 263 121 311 q 188 178 153 214 q 265 124 219 143 q 360 106 310 106 q 514 151 440 106 q 580 117 544 129 q 654 106 615 106 q 753 124 704 106 q 843 178 803 143 q 912 263 886 214 q 943 365 938 311 m 439 385 l 453 517 l 464 625 q 465 635 464 632 l 468 665 l 494 913 l 692 913 l 665 665 l 660 615 l 650 517 l 636 385 q 641 340 633 360 q 679 319 649 319 q 721 340 710 319 q 735 385 732 360 q 740 431 738 408 q 744 478 742 454 q 753 557 749 518 q 761 635 757 596 q 762 650 761 642 q 764 665 763 658 l 790 913 l 989 913 l 931 367 q 877 235 922 292 q 770 149 832 178 q 640 123 708 119 q 515 172 571 126 q 381 123 450 126 q 255 149 311 119 q 166 235 199 178 q 140 367 133 292 q 169 640 154 504 q 199 913 183 775 l 396 913 l 369 665 q 367 640 368 653 q 364 615 365 628 q 357 547 361 581 q 350 478 353 513 q 345 431 347 454 q 340 385 343 408 q 345 340 338 360 q 383 319 353 319 q 425 340 414 319 q 439 385 436 360 m 882 379 q 908 621 894 501 q 933 863 921 740 l 835 863 l 814 665 l 811 635 q 801 538 806 586 q 790 440 796 489 q 788 415 789 431 q 784 384 786 400 q 778 353 782 368 q 769 328 775 338 q 728 286 754 301 q 674 271 703 271 q 622 286 644 271 q 589 328 600 301 q 586 353 586 338 q 587 384 586 368 q 590 415 588 400 q 593 440 592 431 q 602 528 597 485 q 611 615 607 571 q 614 640 613 628 q 617 665 615 653 l 638 863 l 539 863 l 518 665 l 515 635 q 505 538 510 586 q 494 440 500 489 q 492 415 493 431 q 488 384 490 400 q 482 353 486 368 q 472 328 478 338 q 433 286 458 301 q 378 271 407 271 q 326 286 349 271 q 293 328 304 301 q 289 353 289 338 q 290 384 289 368 q 294 415 292 400 q 297 440 296 431 q 306 528 301 485 q 315 615 311 571 l 321 665 l 342 863 l 243 863 q 217 621 231 740 q 192 379 204 501 q 210 264 185 315 q 293 186 235 213 q 349 172 321 175 q 411 176 378 169 q 469 199 443 183 q 521 233 494 214 q 567 199 544 214 q 621 176 590 183 q 681 172 653 169 q 742 186 710 175 q 840 264 804 213 q 882 379 875 315 m 906 838 q 881 611 893 724 q 858 385 869 499 q 819 276 851 324 q 725 207 788 229 q 663 195 690 194 q 613 205 636 196 q 567 230 589 214 q 524 264 546 246 q 474 230 499 246 q 425 205 450 214 q 372 195 400 196 q 311 207 344 194 q 231 276 253 229 q 217 385 210 324 q 240 611 228 499 q 264 838 251 724 l 314 838 l 296 665 l 290 615 l 269 419 q 264 360 267 389 q 276 301 261 331 q 317 260 292 275 q 375 246 343 246 q 435 260 407 246 q 483 301 464 275 q 510 360 506 331 q 517 421 514 389 q 528 528 524 474 q 540 635 533 582 q 541 650 540 642 q 543 665 542 658 l 561 838 l 610 838 l 592 665 q 589 640 590 653 q 586 615 588 628 l 565 419 q 560 360 563 389 q 574 301 557 331 q 614 260 589 275 q 671 246 639 246 q 731 260 703 246 q 779 301 760 275 q 806 360 803 331 q 813 421 810 389 q 824 528 819 474 q 836 635 829 582 l 839 665 l 857 838 l 906 838 z "},".":{"ha":364,"x_min":35,"x_max":360,"o":"m 233 357 q 287 346 263 357 q 328 316 311 335 q 352 272 344 297 q 357 218 360 246 q 344 172 354 194 q 319 133 335 150 l 294 90 l 293 90 l 294 90 l 290 81 q 235 22 271 44 q 158 0 200 0 q 107 10 131 0 q 67 40 83 21 q 42 83 50 58 q 38 135 35 107 q 43 163 39 150 q 54 189 47 176 l 85 243 q 140 324 99 292 q 233 357 182 357 m 206 104 q 289 138 253 104 q 331 218 325 171 q 307 297 336 264 q 231 331 278 331 q 147 297 183 331 q 104 218 110 264 q 128 138 99 171 q 206 104 158 104 m 231 318 q 297 289 271 318 q 318 219 322 260 q 282 149 314 178 q 210 121 250 121 q 143 149 169 121 q 121 219 117 178 q 158 289 125 260 q 231 318 190 318 m 268 219 q 258 253 271 239 q 225 268 246 268 q 188 253 204 268 q 169 219 172 239 q 180 184 167 199 q 214 169 193 169 q 250 184 235 169 q 268 219 265 199 m 222 244 q 240 238 233 244 q 244 219 246 231 q 235 201 243 208 q 217 194 228 194 q 199 201 206 194 q 194 219 193 208 q 203 238 196 231 q 222 244 211 244 z "},",":{"ha":364,"x_min":29,"x_max":361,"o":"m 356 236 q 354 206 361 219 q 292 56 342 126 l 272 26 l 274 26 l 269 17 q 151 -117 228 -57 q 133 -126 143 -122 q 113 -131 124 -131 q 72 -114 88 -131 q 57 -74 57 -97 q 58 -49 57 -61 q 56 -28 58 -36 q 53 -14 54 -21 q 47 1 51 -7 l 47 6 q 44 10 46 8 q 42 19 42 13 q 32 75 35 44 q 36 138 29 106 q 53 190 40 165 l 88 251 q 142 326 103 296 q 231 356 182 356 q 284 346 263 356 q 325 314 306 336 q 351 268 343 293 l 357 243 l 356 236 m 329 211 q 332 225 332 215 l 332 228 q 331 233 332 231 q 331 238 331 235 l 326 260 q 317 280 322 271 q 306 296 313 289 q 272 322 290 314 q 229 331 254 331 q 147 298 183 331 q 104 218 111 265 q 101 160 97 188 q 110 108 104 133 l 115 89 q 124 61 122 74 q 126 35 126 49 q 125 11 125 22 q 135 -15 125 -4 q 160 -25 144 -25 q 185 -17 174 -25 q 285 88 249 32 q 329 211 322 144 m 317 224 q 318 220 317 222 q 317 218 319 218 q 272 93 310 147 q 178 -4 235 39 q 152 -8 165 -14 q 140 14 139 -1 q 140 40 140 28 q 138 65 140 53 q 132 91 136 79 q 125 115 128 103 q 115 167 118 142 q 119 219 113 192 q 156 289 124 260 q 229 318 189 318 q 294 289 269 318 q 314 257 307 275 q 316 247 315 251 q 317 238 317 243 q 317 233 317 235 q 318 228 318 231 q 317 224 318 225 m 190 67 q 244 135 225 100 q 268 218 263 171 l 268 219 q 257 255 271 240 q 222 268 243 269 q 185 253 200 268 q 168 217 171 238 l 168 214 q 167 206 167 210 q 165 197 167 201 q 166 191 165 194 q 165 185 167 188 q 167 167 167 176 q 169 151 168 158 q 176 124 172 138 q 183 97 179 111 q 186 90 186 94 q 188 82 186 86 q 190 67 188 78 m 243 218 q 203 118 238 164 q 197 144 200 131 q 192 169 193 157 q 192 182 192 176 q 190 193 192 188 q 191 203 192 199 q 192 211 190 207 q 193 215 193 213 q 199 235 194 228 q 219 243 204 242 q 238 238 231 244 q 243 219 244 231 l 243 218 z "},"T":{"ha":610,"x_min":90,"x_max":675,"o":"m 161 950 l 675 950 l 646 672 l 640 672 l 596 593 l 518 593 l 465 81 l 461 81 l 417 0 l 146 0 l 207 593 l 90 593 l 119 863 l 161 939 l 161 950 m 622 697 l 646 924 l 185 924 l 161 697 l 278 697 l 215 106 l 442 106 l 504 697 l 622 697 m 631 913 l 610 715 l 492 715 l 429 124 l 232 124 l 294 715 l 178 715 l 199 913 l 631 913 l 631 913 m 565 765 l 576 864 l 242 864 l 231 765 l 347 765 l 286 172 l 385 172 l 446 765 l 565 765 l 565 765 m 549 839 l 543 789 l 425 789 l 363 197 l 313 197 l 375 789 l 257 789 l 263 839 l 549 839 l 549 839 z "},"N":{"ha":660,"x_min":28,"x_max":704,"o":"m 665 831 q 692 772 683 800 q 702 715 700 743 q 702 660 704 688 q 696 603 700 632 l 640 79 l 636 79 l 593 0 l 322 0 l 328 57 l 297 0 l 28 0 l 79 501 q 79 515 82 506 q 93 607 85 563 q 125 696 101 651 l 151 740 q 203 831 168 785 q 313 917 249 886 q 446 949 376 949 q 573 917 515 949 q 665 831 631 886 m 671 603 q 677 710 678 658 q 644 815 676 763 q 559 894 613 865 q 443 924 506 924 q 322 894 381 924 q 221 815 263 865 q 187 763 200 789 q 167 710 174 736 q 156 657 160 683 q 149 603 151 631 q 149 594 150 599 q 149 583 149 589 l 97 106 l 322 106 l 379 646 q 394 689 383 681 q 419 697 406 697 q 443 689 433 697 q 449 646 453 681 l 392 106 l 618 106 l 669 583 l 671 603 m 631 807 q 662 699 663 754 q 654 585 661 644 q 629 352 642 467 q 606 119 617 238 l 408 119 l 433 367 q 437 392 436 379 q 439 417 438 404 q 446 485 442 451 q 453 553 450 518 q 458 599 456 576 q 463 646 460 622 q 458 692 465 672 q 419 711 451 711 q 378 692 389 711 q 364 647 367 672 q 359 600 361 624 q 354 553 357 576 q 346 475 350 514 q 338 396 342 436 q 337 381 338 389 q 335 367 336 374 l 310 119 l 113 119 q 136 352 124 238 q 161 585 149 467 q 176 699 167 644 q 231 807 186 754 q 326 883 271 856 q 440 910 381 910 q 550 883 500 910 q 631 807 600 856 m 603 571 q 609 620 606 596 q 614 669 613 644 q 611 717 615 693 q 594 767 607 742 q 530 835 571 811 q 436 860 489 860 q 338 835 385 860 q 258 767 290 811 q 233 717 242 742 q 219 669 224 693 q 213 620 214 644 q 208 571 211 596 q 187 370 197 471 q 165 169 176 269 l 264 169 l 285 367 l 288 396 l 308 592 q 311 617 310 601 q 315 647 313 632 q 321 678 317 663 q 331 703 325 693 q 370 746 344 731 q 425 761 396 761 q 476 746 454 761 q 510 703 499 731 q 514 678 514 693 q 513 647 514 663 q 509 617 511 632 q 506 592 507 601 q 497 504 501 547 q 488 417 492 461 l 482 367 l 461 169 l 560 169 q 581 370 571 269 q 603 571 592 471 m 575 744 q 586 702 583 725 q 588 655 589 679 q 583 607 586 631 q 578 564 579 583 q 558 378 568 471 q 539 193 549 286 l 489 193 l 507 367 l 513 417 q 523 514 518 465 q 533 611 528 563 q 539 672 536 643 q 526 731 542 701 q 485 772 511 757 q 428 786 460 786 q 367 772 396 786 q 319 731 339 757 q 293 672 297 701 q 286 611 289 643 q 274 504 279 558 q 263 396 269 450 l 260 367 l 242 193 l 193 193 q 213 378 203 286 q 232 564 222 471 q 242 655 236 604 q 272 746 247 706 q 343 811 300 788 q 433 835 386 835 q 519 811 482 835 q 575 744 557 788 z "},"M":{"ha":969,"x_min":33,"x_max":1013,"o":"m 938 869 q 994 775 976 828 q 1006 663 1013 722 l 943 79 l 939 79 l 896 0 l 625 0 l 631 57 l 600 0 l 329 0 l 335 57 l 304 0 l 33 0 l 56 217 q 63 306 58 256 q 74 397 68 357 q 83 488 78 442 q 93 579 88 535 q 133 697 101 640 l 154 733 q 192 807 169 772 q 246 869 215 842 q 344 928 290 908 q 454 949 399 949 q 529 938 494 949 q 596 907 564 928 q 670 938 633 928 q 747 949 707 949 q 852 928 803 949 q 938 869 901 908 m 981 663 q 969 765 985 717 q 918 850 953 814 q 840 904 885 886 q 744 922 794 922 q 593 876 667 922 q 451 922 528 922 q 352 904 401 922 q 263 850 303 886 q 194 765 219 814 q 163 663 168 717 q 142 480 151 571 q 124 299 132 389 l 104 118 l 103 104 l 329 104 l 386 644 q 401 688 390 679 q 426 696 411 696 q 449 688 439 696 q 456 644 460 679 l 399 104 l 625 104 l 682 644 q 697 688 686 679 q 722 696 708 696 q 746 688 736 696 q 751 644 756 679 l 694 104 l 921 104 l 922 118 l 942 300 l 981 663 m 471 643 q 466 688 474 668 q 428 708 458 708 q 386 688 397 708 q 372 643 375 668 q 367 597 369 619 q 363 550 365 574 q 354 471 358 510 q 346 393 350 432 q 345 378 346 386 q 343 363 344 369 l 317 117 l 118 117 q 147 388 133 253 q 176 661 161 524 q 204 753 182 711 q 260 828 226 796 q 336 880 294 860 q 422 905 378 900 q 510 899 467 910 q 592 857 554 888 q 726 906 657 903 q 851 879 796 908 q 940 793 907 850 q 967 661 974 736 q 938 388 953 524 q 908 117 924 253 l 711 117 l 738 363 q 740 388 739 375 q 743 413 740 400 q 750 481 746 447 q 757 550 754 515 q 762 597 760 574 q 767 643 764 619 q 763 688 769 668 q 724 708 756 708 q 682 688 693 708 q 668 643 671 668 l 654 511 l 643 404 q 642 399 643 401 q 642 393 642 396 l 639 363 l 613 117 l 415 117 l 442 363 l 447 413 l 457 511 l 471 643 m 864 165 q 889 407 876 288 q 915 649 901 526 q 897 764 922 713 q 814 842 872 815 q 757 856 785 854 q 696 851 729 858 q 638 829 664 844 q 586 794 613 814 q 540 829 563 814 q 486 851 517 844 q 365 842 425 865 q 267 764 303 815 q 225 649 232 713 q 199 407 211 526 q 174 165 186 288 l 272 165 l 293 363 l 296 393 l 317 589 q 319 613 318 599 q 322 644 319 628 q 327 675 324 660 q 336 700 331 690 q 378 742 351 726 q 433 757 404 757 q 485 742 463 757 q 517 700 507 726 q 520 675 519 690 q 519 644 521 660 q 517 613 518 628 q 514 589 515 599 q 505 501 510 544 q 496 413 500 457 q 492 388 493 400 q 490 363 492 375 l 469 165 l 568 165 l 589 363 l 592 393 l 613 589 q 615 613 614 599 q 619 644 617 628 q 624 675 621 660 q 633 700 628 690 q 674 742 649 726 q 729 757 700 757 q 781 742 758 757 q 813 700 803 726 q 817 675 817 690 q 816 644 817 660 q 813 613 815 628 q 810 589 811 599 q 801 501 806 544 q 792 413 796 457 l 786 363 l 765 165 l 864 165 m 890 643 q 867 417 879 529 q 843 190 854 304 l 793 190 l 811 363 l 817 413 l 838 608 q 843 668 840 639 q 829 726 846 697 q 789 767 814 753 q 732 782 764 782 q 671 767 700 782 q 622 726 642 753 q 597 668 601 697 q 590 608 593 639 q 578 500 583 554 q 567 393 574 446 q 566 378 567 386 q 564 363 565 369 l 546 190 l 497 190 l 515 363 q 517 388 517 375 q 521 413 518 400 l 542 608 q 547 668 544 639 q 532 726 550 697 q 493 767 518 753 q 436 782 468 782 q 375 767 404 782 q 326 726 346 753 q 301 668 304 697 q 294 608 297 639 q 283 500 288 554 q 271 393 278 446 l 268 363 l 250 190 l 201 190 q 225 417 213 304 q 249 643 238 529 q 287 751 256 704 q 382 821 318 799 q 444 833 417 833 q 494 823 471 832 q 538 798 517 814 q 582 764 560 782 q 633 798 608 782 q 682 823 657 814 q 735 833 707 832 q 796 821 763 833 q 875 751 853 799 q 890 643 897 704 z "},"Q":{"ha":660,"x_min":53,"x_max":847,"o":"m 419 376 q 415 353 417 361 q 401 339 413 346 q 378 329 392 329 q 355 339 365 329 q 347 364 344 349 l 376 644 q 381 667 379 658 q 392 686 382 676 q 417 693 401 693 q 440 684 428 693 q 449 660 451 675 l 419 376 m 653 31 l 646 31 l 601 -50 l 311 -50 l 294 0 q 177 33 229 3 q 90 117 125 64 q 54 228 56 171 q 60 343 53 285 l 65 383 q 69 433 68 407 q 72 488 69 460 q 83 569 78 532 q 92 614 89 606 q 124 692 103 657 l 144 732 q 212 840 168 793 q 317 914 256 886 q 379 938 349 929 q 443 946 410 946 q 544 926 496 946 q 628 869 592 907 q 683 782 664 833 q 700 678 701 731 q 700 653 701 667 q 697 628 699 639 l 690 564 q 689 558 690 560 q 686 554 688 557 l 674 424 q 658 313 669 367 q 601 204 646 260 l 594 197 l 653 31 m 617 53 l 569 200 q 608 256 593 228 q 631 311 622 283 q 643 367 639 339 q 650 424 647 394 l 663 554 q 665 571 664 563 q 667 590 665 579 q 671 631 669 611 q 675 674 672 651 q 660 770 678 726 q 610 850 643 814 q 533 902 576 885 q 440 919 489 919 q 322 893 386 919 q 217 811 260 865 q 158 693 174 757 q 153 662 156 686 q 147 605 150 638 q 140 535 143 572 q 135 464 136 497 l 133 450 l 131 424 q 123 315 122 368 q 156 208 124 261 q 240 131 188 160 q 354 103 292 103 l 371 53 l 617 53 m 661 674 q 655 613 658 643 q 649 554 651 582 q 642 493 646 524 q 636 431 639 463 q 629 371 633 400 q 617 313 625 342 q 594 258 608 285 q 554 204 579 231 l 597 65 l 385 65 l 369 117 l 360 117 q 249 143 299 117 q 168 218 200 169 q 145 274 151 246 q 138 331 139 301 q 141 389 138 360 q 149 450 144 418 q 153 494 149 458 q 161 570 157 529 q 169 647 165 611 q 175 692 174 682 q 231 802 190 753 q 329 878 271 851 q 453 903 392 907 q 561 871 514 900 q 636 790 608 842 q 661 674 664 739 m 588 408 q 599 518 594 464 q 611 628 604 572 q 607 731 618 686 q 547 817 596 776 q 451 853 507 849 q 344 833 396 858 q 259 761 293 808 q 218 660 225 714 q 206 551 210 606 q 196 442 201 497 q 188 338 189 388 q 218 238 186 288 q 300 176 254 188 q 404 168 346 165 l 424 117 l 528 117 l 499 214 q 540 263 525 242 q 565 304 556 283 q 579 349 575 325 q 588 408 583 374 m 539 790 q 572 747 561 769 q 585 702 582 725 q 586 654 588 679 q 582 603 585 629 q 572 501 576 553 q 561 399 567 450 q 552 340 557 363 q 538 299 547 318 q 513 262 528 281 q 472 215 497 243 l 493 143 l 442 143 l 424 193 q 373 192 397 192 q 326 197 349 192 q 281 213 303 201 q 240 249 260 225 q 217 294 224 271 q 210 341 211 317 q 213 390 210 365 q 218 440 215 415 q 228 542 224 490 q 239 643 233 593 q 272 742 246 697 q 353 811 299 786 q 452 828 401 835 q 539 790 503 822 m 494 317 q 503 352 500 328 q 510 402 507 376 q 515 452 514 428 q 518 488 517 476 q 528 573 524 531 q 536 656 532 615 q 515 738 542 707 q 449 778 488 769 q 369 769 410 786 q 304 704 328 751 q 294 669 299 693 q 288 618 290 644 q 283 567 285 592 q 279 532 281 543 q 270 449 275 492 q 261 364 265 407 q 283 281 256 313 q 349 242 310 250 q 430 252 389 235 q 494 317 471 269 m 497 507 q 491 431 493 468 q 478 356 489 394 q 438 286 471 308 q 370 265 406 264 q 308 291 335 267 q 288 364 282 315 q 295 438 292 401 q 303 514 299 475 q 310 589 307 551 q 319 663 313 626 q 360 733 326 710 q 428 756 393 757 q 491 729 464 754 q 513 656 518 704 q 506 583 510 619 q 497 507 501 546 m 413 324 q 430 351 426 339 q 435 376 433 363 q 438 406 436 392 q 440 435 439 419 q 453 544 447 489 q 464 656 458 600 q 458 684 465 672 q 439 701 451 696 q 412 705 426 707 q 385 693 397 703 q 368 670 371 682 q 363 643 365 658 q 360 616 361 629 q 357 588 358 603 q 345 475 350 532 q 333 364 340 418 q 340 335 332 347 q 359 317 347 324 q 385 312 371 311 q 413 324 400 313 m 847 944 l 847 946 l 847 944 m 847 946 l 847 944 l 847 946 z "},"G":{"ha":660,"x_min":54,"x_max":708,"o":"m 125 700 l 125 699 l 124 697 l 125 700 m 446 949 q 556 926 506 949 q 640 865 606 904 q 692 774 675 826 q 703 663 708 722 l 671 367 q 650 285 667 324 q 610 213 633 246 l 585 168 q 471 47 544 93 q 310 0 397 0 q 226 13 268 0 l 225 13 q 120 80 164 33 q 61 190 76 126 q 56 252 54 222 q 60 317 57 282 l 85 547 q 92 610 88 581 q 111 672 97 640 l 132 710 l 111 672 q 117 683 114 678 q 122 693 119 688 l 125 699 l 128 701 l 125 700 l 147 738 q 156 757 149 746 q 239 867 183 819 q 358 936 294 915 q 403 946 382 943 q 446 949 425 949 m 678 663 q 668 764 683 717 q 621 847 653 811 q 543 903 589 882 q 443 924 497 924 q 364 911 406 924 q 255 850 304 893 q 178 749 206 807 q 160 690 165 719 q 151 629 154 661 l 128 399 q 123 338 124 367 q 129 279 122 310 q 184 178 144 221 q 281 117 224 136 q 357 106 322 106 q 461 126 411 106 q 550 181 511 146 q 615 265 589 217 q 646 367 640 313 l 674 628 l 397 628 l 374 401 l 424 401 l 419 367 q 408 342 418 351 q 383 331 399 332 q 358 340 368 331 q 350 364 349 349 q 353 415 351 389 q 360 464 356 440 l 364 514 l 369 564 q 374 615 372 589 q 382 664 376 640 q 394 689 383 679 q 421 697 406 699 q 444 688 436 697 q 451 663 453 678 l 450 649 l 676 649 l 678 663 m 632 369 q 592 256 625 307 q 511 171 560 204 q 404 126 463 138 q 289 133 346 115 q 196 191 233 150 q 144 288 158 232 q 139 344 138 315 q 143 400 140 372 l 156 517 q 161 575 158 546 q 167 633 164 604 q 174 690 169 663 q 192 746 179 718 q 265 842 218 801 q 369 900 311 883 q 486 908 431 918 q 583 864 542 897 q 647 779 625 831 q 664 665 669 728 l 467 665 q 455 702 469 688 q 418 714 440 717 q 381 695 392 711 q 367 656 369 679 q 358 574 363 615 q 350 492 354 533 q 346 451 347 472 q 342 410 344 431 q 336 371 339 393 q 349 333 333 349 q 384 319 363 318 q 421 339 406 321 q 436 378 433 353 q 440 418 439 404 l 390 418 l 411 615 l 658 615 l 632 369 m 581 356 q 588 408 586 382 q 592 461 589 433 q 597 513 594 488 q 603 567 600 539 l 456 567 l 446 468 l 494 468 q 492 445 494 463 q 488 408 490 428 q 484 370 486 388 q 481 347 482 353 q 444 296 469 317 q 389 271 419 275 q 331 281 357 267 q 293 324 304 296 q 288 349 289 333 q 288 382 288 365 q 291 415 289 399 q 294 442 293 431 l 307 563 q 309 584 307 567 q 313 622 311 601 q 317 660 315 643 q 321 682 319 678 q 356 737 331 717 q 410 763 381 757 q 467 756 439 768 q 508 714 494 744 l 614 714 q 570 808 606 771 q 487 857 535 844 q 385 856 439 869 q 288 800 332 843 q 251 754 264 778 q 230 706 238 731 q 219 656 222 682 q 213 604 215 631 q 202 499 207 551 q 190 393 197 446 q 194 290 183 335 q 253 210 206 246 q 347 172 293 178 q 451 190 400 167 q 537 258 501 214 q 581 356 572 301 m 576 542 q 569 449 572 496 q 557 357 565 403 q 518 271 549 310 q 442 213 488 232 q 351 198 397 193 q 268 231 304 203 q 219 301 228 263 q 215 392 210 340 q 225 485 221 439 q 235 576 229 531 q 239 623 238 600 q 244 668 240 646 q 256 713 247 690 q 281 757 264 735 q 357 820 313 800 q 446 838 401 840 q 527 810 490 835 q 581 739 564 785 l 522 739 q 470 781 503 769 q 404 786 438 793 q 342 756 371 779 q 300 694 314 732 q 294 667 297 688 q 289 624 292 647 q 284 582 286 601 q 282 556 282 563 q 274 485 278 519 q 267 415 269 451 q 262 347 263 379 q 288 285 261 315 q 342 249 308 258 q 413 251 376 240 q 473 290 447 263 q 506 353 499 317 q 512 388 511 371 q 514 422 513 404 q 518 458 517 440 q 522 492 519 475 l 474 492 l 478 542 l 576 542 z "},"a":{"ha":660,"x_min":26,"x_max":701,"o":"m 378 642 q 385 676 378 663 q 399 693 392 689 q 419 697 406 697 q 439 693 432 697 q 450 676 446 689 q 449 642 453 663 l 447 626 l 436 528 l 365 528 l 376 626 l 378 642 m 671 819 q 701 712 700 764 q 696 611 701 660 l 639 79 l 633 79 l 592 0 l 322 0 l 328 60 l 296 0 l 26 0 l 72 446 q 76 483 75 464 q 79 521 76 503 q 88 588 83 558 q 96 629 92 618 l 96 631 q 124 696 106 663 l 129 707 l 131 708 l 129 708 l 151 747 q 205 832 172 792 q 276 897 238 872 q 358 935 317 924 q 444 947 400 947 q 577 915 518 947 q 671 819 636 882 m 671 611 q 675 708 675 658 q 647 806 675 757 q 563 892 617 861 q 442 922 508 922 q 290 876 361 922 q 211 804 244 849 q 163 708 178 760 q 151 637 157 689 q 140 528 146 585 l 139 510 l 96 106 l 321 106 l 342 303 l 413 303 l 392 106 l 617 106 l 671 611 m 636 414 l 604 118 l 407 118 l 428 315 l 329 315 l 308 118 l 111 118 l 153 510 q 157 549 154 521 q 163 608 160 576 q 171 667 167 639 q 178 706 175 694 q 222 796 192 754 q 297 865 253 838 q 393 903 343 894 q 489 903 443 913 q 574 867 535 894 q 636 797 613 840 q 661 706 660 753 q 657 610 663 660 q 653 574 654 592 q 649 538 651 557 l 636 414 m 604 569 q 614 669 610 621 q 593 765 618 717 q 530 834 572 810 q 436 858 488 858 q 337 834 383 858 q 258 765 290 810 q 231 717 240 740 q 218 669 222 693 q 213 619 214 644 q 208 569 211 594 q 187 369 197 469 q 165 168 176 268 l 264 168 l 285 365 l 483 365 l 463 168 l 561 168 q 583 369 572 268 q 604 569 593 469 m 576 744 q 588 653 593 704 q 578 563 582 603 q 558 377 568 469 q 539 193 549 285 l 489 193 l 510 390 l 264 390 l 243 193 l 193 193 q 213 377 203 285 q 232 563 222 469 q 242 653 236 603 q 272 744 247 704 q 343 810 300 786 q 435 833 386 833 q 519 810 482 833 q 576 744 557 786 m 515 439 l 536 647 q 516 744 543 704 q 429 785 489 785 q 333 744 368 785 q 290 647 297 704 l 269 439 l 515 439 m 513 640 q 503 552 508 596 q 494 464 499 508 l 296 464 q 305 552 300 508 q 314 640 310 596 q 322 684 317 664 q 344 724 326 704 q 381 751 363 743 q 426 760 400 760 q 468 751 451 760 q 499 724 485 743 q 514 684 513 704 q 513 640 515 664 m 461 626 q 465 653 463 640 q 463 682 468 667 q 421 711 453 711 q 392 704 403 711 q 372 682 382 697 q 365 653 365 667 q 363 626 364 640 q 356 570 360 599 q 350 513 353 542 l 449 513 q 455 570 451 542 q 461 626 458 599 z "},"b":{"ha":660,"x_min":28,"x_max":708,"o":"m 454 667 q 440 641 451 651 q 415 631 429 631 l 381 631 l 389 701 l 424 701 q 447 692 438 701 q 454 667 456 682 m 422 365 q 410 340 421 350 q 385 331 399 331 l 350 331 l 357 400 l 392 400 q 415 390 406 400 q 422 365 425 381 m 588 167 l 593 176 l 588 167 m 676 386 q 663 310 674 347 q 632 239 653 272 q 614 213 624 225 l 611 210 l 610 208 l 601 190 l 597 185 l 600 189 l 594 181 l 588 167 l 581 157 q 532 93 561 121 q 469 44 503 65 q 311 0 397 0 l 28 0 l 118 863 l 160 938 l 161 950 l 447 950 q 600 903 536 950 l 600 904 q 651 855 629 885 q 689 790 674 825 q 706 719 703 758 q 703 643 708 679 q 683 575 697 608 q 650 514 669 542 q 672 453 665 486 q 676 386 678 421 m 608 250 q 650 385 647 313 q 618 514 654 457 q 657 576 642 543 q 676 644 672 610 q 680 713 683 679 q 664 779 676 747 q 631 837 651 811 q 583 882 610 863 q 444 924 525 924 l 183 924 l 97 106 l 358 106 q 507 146 439 106 q 608 250 569 188 m 618 222 l 621 225 l 624 231 l 618 222 m 264 122 l 115 122 l 199 913 l 347 913 q 428 913 389 913 q 503 905 468 913 q 570 877 539 897 q 629 817 601 857 q 660 745 651 783 q 666 667 669 707 q 646 589 663 628 q 601 517 629 550 q 631 444 622 483 q 635 366 639 406 q 613 288 631 326 q 567 217 596 250 q 495 157 531 176 q 422 130 460 138 q 345 122 385 122 q 264 122 306 122 m 613 644 q 616 717 621 685 q 592 781 611 749 q 540 835 568 818 q 481 859 513 853 q 414 864 449 865 q 342 863 379 863 l 243 863 l 171 172 l 269 172 q 342 171 307 172 q 409 176 376 169 q 474 199 442 182 q 536 254 506 217 q 574 318 563 286 q 586 390 586 350 q 572 458 586 429 q 539 517 558 488 q 585 576 565 547 q 613 644 604 606 m 339 838 q 406 840 372 838 q 472 835 439 842 q 531 810 508 826 q 572 761 554 793 q 593 699 590 729 q 585 633 596 669 q 553 571 574 597 q 508 517 532 544 q 542 464 526 490 q 561 401 558 438 q 554 335 564 365 q 521 274 544 306 q 406 200 475 214 q 338 195 371 193 q 271 197 304 197 l 196 197 l 264 838 l 339 838 m 442 547 q 510 592 482 558 q 543 665 539 625 q 526 740 547 707 q 467 783 506 772 q 435 788 458 786 q 387 789 413 789 q 339 789 361 789 q 308 789 317 789 l 282 542 q 313 542 290 542 q 360 542 335 542 q 409 543 386 542 q 442 547 432 544 m 411 251 q 479 295 451 263 q 511 369 507 328 q 495 443 517 410 q 435 488 474 476 q 404 492 426 490 q 356 493 382 493 q 308 493 331 493 q 278 493 286 493 l 251 246 q 282 246 260 246 q 330 246 304 246 q 378 247 356 246 q 411 251 401 249 m 518 665 q 492 607 515 633 q 438 571 469 581 q 411 567 429 568 q 373 567 393 567 q 335 567 353 567 q 310 567 317 567 l 331 764 q 356 764 338 764 q 394 764 374 764 q 432 763 414 764 q 457 760 450 761 q 504 724 488 750 q 518 665 521 699 m 468 665 q 462 695 471 682 q 438 713 453 708 q 406 717 422 718 q 375 715 390 715 l 364 615 q 395 614 379 615 q 428 618 411 613 q 455 635 444 622 q 468 665 465 649 m 486 369 q 460 310 483 336 q 406 275 438 285 q 381 272 399 272 q 342 271 363 271 q 304 271 322 271 q 279 271 286 271 l 300 468 q 325 468 307 468 q 363 468 343 468 q 401 467 383 468 q 426 464 419 465 q 474 428 457 454 q 486 369 490 401 m 436 369 q 426 403 439 389 q 393 418 413 418 l 343 418 l 333 319 l 383 319 q 418 334 403 319 q 436 369 433 349 z "},"c":{"ha":660,"x_min":51,"x_max":706,"o":"m 382 464 q 381 453 381 458 q 379 443 381 449 l 378 424 q 374 395 375 408 q 372 365 374 382 q 375 361 372 364 l 394 394 l 396 407 l 672 407 l 668 365 q 604 208 660 279 l 582 169 q 467 47 542 94 q 307 0 393 0 q 265 3 286 0 q 225 14 244 7 q 117 80 161 33 q 58 190 74 126 q 52 252 51 222 q 56 315 53 282 l 81 547 q 89 611 83 582 q 108 672 94 640 l 118 692 l 143 738 q 147 746 146 742 q 151 757 149 750 q 237 866 179 818 q 357 936 294 914 q 443 949 399 949 q 551 926 501 949 q 637 865 601 904 q 689 774 672 826 q 700 663 706 722 l 696 622 l 690 622 l 647 543 l 392 543 l 388 515 q 385 501 388 510 l 382 464 m 367 565 q 372 615 369 589 q 379 665 374 640 q 392 690 382 681 q 418 699 403 699 q 441 688 432 697 q 449 663 450 678 l 447 649 l 674 649 l 675 663 q 665 764 681 717 q 617 847 649 811 q 540 903 585 882 q 440 924 494 924 q 363 911 400 924 q 251 850 300 893 q 175 749 203 807 q 157 691 163 719 q 149 631 151 663 l 125 399 q 120 338 121 367 q 126 281 119 310 q 181 178 142 222 q 279 118 221 135 q 354 104 318 104 q 458 125 408 104 q 547 181 507 146 q 612 264 586 217 q 643 365 638 311 l 644 381 l 418 381 l 417 365 q 405 342 415 351 q 381 331 394 332 q 356 340 365 331 q 347 364 347 349 q 351 414 349 389 q 357 464 353 439 q 360 489 358 476 q 363 515 361 501 q 365 540 365 528 q 367 565 365 551 m 661 663 l 464 663 q 453 697 467 683 q 421 713 440 711 q 385 700 401 714 q 365 667 368 686 q 356 591 358 629 q 349 515 353 553 q 340 440 346 478 q 333 364 335 401 q 347 327 332 339 q 379 316 361 315 q 413 329 397 317 q 432 367 429 342 l 626 367 l 629 367 q 590 253 622 304 q 508 168 557 201 q 401 124 460 135 q 285 132 343 113 q 193 190 231 149 q 142 286 156 231 q 136 342 135 314 q 140 399 138 369 q 146 457 143 428 q 151 515 149 486 l 164 632 q 172 688 167 660 q 190 744 176 717 q 261 840 214 800 q 367 899 308 881 q 483 906 428 917 q 581 861 539 894 q 644 776 622 828 q 661 663 667 725 m 504 713 l 610 713 q 576 794 603 760 q 512 845 550 828 q 428 861 474 863 q 338 836 382 860 q 265 776 296 814 q 222 694 235 739 q 217 660 219 686 q 210 604 214 633 q 204 549 207 575 q 200 515 201 524 q 197 481 200 507 q 192 425 194 454 q 187 370 189 396 q 185 336 185 344 q 210 253 188 290 q 269 194 232 217 q 354 169 308 171 q 442 185 400 168 q 518 237 483 203 q 569 318 553 271 l 464 318 q 424 281 447 293 q 375 268 400 268 q 328 280 350 268 q 293 315 306 292 q 283 363 281 339 q 289 414 286 388 q 294 465 292 439 q 299 515 296 490 q 304 566 301 540 q 310 617 307 592 q 315 667 313 643 q 336 715 317 692 q 377 751 353 739 q 426 762 401 763 q 472 749 450 761 q 504 713 493 736 m 578 738 l 519 738 q 479 774 504 763 q 426 786 454 786 q 372 774 399 786 q 324 738 344 763 q 296 685 301 711 q 288 629 290 658 q 281 572 285 601 q 275 515 278 543 q 269 458 272 488 q 264 401 267 429 q 260 346 261 372 q 278 293 260 319 q 318 256 293 268 q 371 244 343 244 q 426 256 399 244 q 474 293 453 268 l 532 293 q 476 232 510 256 q 406 199 443 208 q 332 197 369 190 q 264 229 294 204 q 221 288 235 253 q 210 361 207 322 q 217 438 213 400 q 225 515 222 476 q 233 592 229 554 q 242 668 236 631 q 269 742 247 708 q 324 800 290 776 q 398 832 358 825 q 473 831 438 839 q 536 799 508 822 q 578 738 564 775 z "},"d":{"ha":660,"x_min":25,"x_max":707,"o":"m 418 365 q 409 344 417 354 q 390 332 401 335 q 367 331 383 331 l 350 331 l 344 331 l 382 699 l 388 699 q 397 699 393 699 q 404 700 401 700 q 428 696 417 700 q 431 694 429 696 q 432 693 432 694 l 435 693 l 436 693 l 438 692 l 439 692 l 439 690 l 440 689 l 442 688 l 443 688 l 443 686 l 443 685 l 447 679 q 449 678 449 679 l 449 676 l 449 672 q 450 671 449 672 l 450 669 q 450 652 451 661 q 446 633 449 643 l 444 614 l 432 490 l 426 447 l 418 365 m 444 949 q 554 926 504 949 q 639 865 604 904 q 690 774 674 826 q 701 663 707 722 l 669 367 q 649 285 665 324 q 608 213 633 246 l 583 168 q 469 47 543 93 q 308 0 396 0 l 25 0 l 115 863 l 157 938 l 158 949 l 444 949 m 675 663 q 665 764 681 717 q 618 847 650 811 q 541 903 586 882 q 442 924 496 924 l 181 924 l 94 106 l 356 106 q 459 126 410 106 q 547 181 508 146 q 612 265 586 217 q 643 367 638 313 l 675 663 m 663 663 l 631 367 q 601 271 625 315 q 540 193 578 226 q 456 140 503 160 q 358 121 410 121 l 310 121 l 260 121 l 113 121 l 194 910 l 342 910 l 392 910 l 440 910 q 535 890 492 910 q 608 838 578 871 q 653 759 638 804 q 663 663 668 714 m 581 367 l 613 663 q 605 740 617 704 q 569 802 593 775 q 512 844 546 829 q 436 860 478 860 l 388 860 l 338 860 l 239 860 l 165 169 l 314 169 l 363 169 q 442 185 404 169 q 508 227 479 200 q 557 290 538 254 q 581 367 576 326 m 589 663 l 557 367 q 536 299 553 331 q 493 244 519 268 q 434 208 467 221 q 365 194 401 194 l 340 194 l 317 194 l 193 194 l 261 836 l 335 836 l 385 836 l 433 836 q 499 822 469 836 q 551 785 529 808 q 583 730 572 761 q 589 663 593 699 m 507 367 l 539 663 q 512 750 544 714 q 428 786 479 786 l 304 786 l 296 713 l 265 417 l 247 243 l 371 243 q 462 279 422 243 q 507 367 501 315 m 514 663 l 482 367 q 446 297 478 326 q 374 268 414 268 l 275 268 l 290 417 l 321 713 l 326 761 l 425 761 q 492 732 465 761 q 514 663 518 703 m 433 365 q 440 428 438 397 q 447 490 443 458 l 460 615 q 465 645 463 631 q 465 675 468 660 q 464 678 464 676 l 464 679 q 463 681 464 681 l 463 682 q 461 685 463 683 l 461 686 q 460 689 461 688 q 458 690 460 690 l 458 693 q 457 694 457 693 q 454 697 457 694 q 453 699 453 697 q 451 700 451 699 q 450 701 450 701 q 447 703 449 703 q 444 706 446 704 q 443 706 443 706 q 442 707 443 707 q 438 708 440 708 q 435 710 436 710 q 432 711 433 710 q 401 714 417 715 q 371 713 386 713 l 361 614 l 331 318 q 360 317 346 318 q 393 319 375 315 q 419 336 408 324 q 433 365 431 349 z "},"e":{"ha":660,"x_min":25,"x_max":732,"o":"m 703 672 l 696 672 l 686 651 l 701 651 l 672 376 l 665 376 l 654 356 l 669 356 l 640 79 l 633 79 l 592 0 l 25 0 l 115 863 l 157 936 l 158 949 l 732 949 l 703 672 m 679 697 l 703 922 l 181 922 l 94 106 l 617 106 l 642 331 l 346 331 l 353 401 l 649 401 l 672 626 l 376 626 l 383 697 l 679 697 m 624 317 l 604 119 l 308 119 l 258 119 l 110 119 l 192 908 l 340 908 l 390 908 l 686 908 l 665 711 l 369 711 l 360 613 l 656 613 l 635 415 l 339 415 l 328 317 l 624 317 l 624 317 m 558 168 l 569 267 l 274 267 l 294 465 l 590 465 l 600 564 l 304 564 l 325 761 l 621 761 l 632 860 l 386 860 l 336 860 l 238 860 l 164 168 l 263 168 l 313 168 l 558 168 l 558 168 m 543 243 l 538 193 l 315 193 l 265 193 l 192 193 l 260 835 l 333 835 l 383 835 l 606 835 l 600 785 l 303 785 l 276 539 l 574 539 l 568 489 l 271 489 l 246 243 l 543 243 l 543 243 z "},"g":{"ha":660,"x_min":54,"x_max":708,"o":"m 125 700 l 125 699 l 124 697 l 125 700 m 446 949 q 556 926 506 949 q 640 865 606 904 q 692 774 675 826 q 703 663 708 722 l 671 367 q 650 285 667 324 q 610 213 633 246 l 585 168 q 471 47 544 93 q 310 0 397 0 q 226 13 268 0 l 225 13 q 120 80 164 33 q 61 190 76 126 q 56 252 54 222 q 60 317 57 282 l 85 547 q 92 610 88 581 q 111 672 97 640 l 132 710 l 111 672 q 117 683 114 678 q 122 693 119 688 l 125 699 l 128 701 l 125 700 l 147 738 q 156 757 149 746 q 239 867 183 819 q 358 936 294 915 q 403 946 382 943 q 446 949 425 949 m 678 663 q 668 764 683 717 q 621 847 653 811 q 543 903 589 882 q 443 924 497 924 q 364 911 406 924 q 255 850 304 893 q 178 749 206 807 q 160 690 165 719 q 151 629 154 661 l 128 399 q 123 338 124 367 q 129 279 122 310 q 184 178 144 221 q 281 117 224 136 q 357 106 322 106 q 461 126 411 106 q 550 181 511 146 q 615 265 589 217 q 646 367 640 313 l 674 628 l 397 628 l 374 401 l 424 401 l 419 367 q 408 342 418 351 q 383 331 399 332 q 358 340 368 331 q 350 364 349 349 q 353 415 351 389 q 360 464 356 440 l 364 514 l 369 564 q 374 615 372 589 q 382 664 376 640 q 394 689 383 679 q 421 697 406 699 q 444 688 436 697 q 451 663 453 678 l 450 649 l 676 649 l 678 663 m 632 369 q 592 256 625 307 q 511 171 560 204 q 404 126 463 138 q 289 133 346 115 q 196 191 233 150 q 144 288 158 232 q 139 344 138 315 q 143 400 140 372 l 156 517 q 161 575 158 546 q 167 633 164 604 q 174 690 169 663 q 192 746 179 718 q 265 842 218 801 q 369 900 311 883 q 486 908 431 918 q 583 864 542 897 q 647 779 625 831 q 664 665 669 728 l 467 665 q 455 702 469 688 q 418 714 440 717 q 381 695 392 711 q 367 656 369 679 q 358 574 363 615 q 350 492 354 533 q 346 451 347 472 q 342 410 344 431 q 336 371 339 393 q 349 333 333 349 q 384 319 363 318 q 421 339 406 321 q 436 378 433 353 q 440 418 439 404 l 390 418 l 411 615 l 658 615 l 632 369 m 581 356 q 588 408 586 382 q 592 461 589 433 q 597 513 594 488 q 603 567 600 539 l 456 567 l 446 468 l 494 468 q 492 445 494 463 q 488 408 490 428 q 484 370 486 388 q 481 347 482 353 q 444 296 469 317 q 389 271 419 275 q 331 281 357 267 q 293 324 304 296 q 288 349 289 333 q 288 382 288 365 q 291 415 289 399 q 294 442 293 431 l 307 563 q 309 584 307 567 q 313 622 311 601 q 317 660 315 643 q 321 682 319 678 q 356 737 331 717 q 410 763 381 757 q 467 756 439 768 q 508 714 494 744 l 614 714 q 570 808 606 771 q 487 857 535 844 q 385 856 439 869 q 288 800 332 843 q 251 754 264 778 q 230 706 238 731 q 219 656 222 682 q 213 604 215 631 q 202 499 207 551 q 190 393 197 446 q 194 290 183 335 q 253 210 206 246 q 347 172 293 178 q 451 190 400 167 q 537 258 501 214 q 581 356 572 301 m 576 542 q 569 449 572 496 q 557 357 565 403 q 518 271 549 310 q 442 213 488 232 q 351 198 397 193 q 268 231 304 203 q 219 301 228 263 q 215 392 210 340 q 225 485 221 439 q 235 576 229 531 q 239 623 238 600 q 244 668 240 646 q 256 713 247 690 q 281 757 264 735 q 357 820 313 800 q 446 838 401 840 q 527 810 490 835 q 581 739 564 785 l 522 739 q 470 781 503 769 q 404 786 438 793 q 342 756 371 779 q 300 694 314 732 q 294 667 297 688 q 289 624 292 647 q 284 582 286 601 q 282 556 282 563 q 274 485 278 519 q 267 415 269 451 q 262 347 263 379 q 288 285 261 315 q 342 249 308 258 q 413 251 376 240 q 473 290 447 263 q 506 353 499 317 q 512 388 511 371 q 514 422 513 404 q 518 458 517 440 q 522 492 519 475 l 474 492 l 478 542 l 576 542 z "},"h":{"ha":660,"x_min":25,"x_max":732,"o":"m 454 949 l 732 949 l 640 79 l 635 79 l 592 0 l 322 0 l 328 57 l 296 0 l 25 0 l 115 863 l 157 938 l 158 949 l 435 949 l 429 896 l 453 938 l 454 949 m 617 106 l 703 924 l 476 924 l 446 628 l 376 628 l 407 924 l 181 924 l 94 106 l 321 106 l 353 401 l 422 401 l 390 106 l 617 106 m 635 414 l 603 117 l 404 117 l 436 414 l 338 414 l 306 117 l 108 117 l 140 414 l 161 611 l 192 907 l 389 907 l 358 611 l 457 611 l 488 907 l 686 907 l 656 611 l 635 414 l 635 414 m 558 167 l 631 857 l 532 857 l 501 561 l 304 561 l 335 857 l 236 857 l 164 167 l 263 167 l 293 463 l 490 463 l 460 167 l 558 167 l 558 167 m 604 833 l 536 192 l 488 192 l 518 488 l 271 488 l 240 192 l 192 192 l 260 833 l 308 833 l 276 536 l 524 536 l 556 833 l 604 833 l 604 833 z "},"i":{"ha":367,"x_min":25,"x_max":435,"o":"m 158 949 l 435 949 l 343 79 l 339 79 l 296 0 l 25 0 l 115 863 l 157 938 l 158 949 m 321 106 l 407 924 l 181 924 l 94 106 l 321 106 m 392 910 l 310 119 l 113 119 l 194 910 l 392 910 l 392 910 m 264 169 l 338 860 l 239 860 l 165 169 l 264 169 l 264 169 m 311 835 l 243 194 l 193 194 l 261 835 l 311 835 l 311 835 z "},"j":{"ha":660,"x_min":46,"x_max":729,"o":"m 729 949 l 672 399 q 663 335 668 365 q 643 272 657 304 q 601 207 628 240 l 589 182 l 583 172 q 501 74 553 117 q 392 13 450 32 q 306 0 347 0 q 199 22 247 0 q 115 83 150 44 q 63 173 81 121 q 53 283 46 225 l 57 319 l 99 396 l 100 406 l 361 406 l 410 863 l 450 938 l 451 949 l 729 949 m 700 924 l 474 924 l 447 665 l 431 514 q 429 490 429 503 q 428 464 429 476 q 423 415 425 440 q 415 364 421 389 q 403 340 414 350 q 376 332 392 331 q 353 342 363 332 q 346 367 344 351 l 347 381 l 122 381 l 121 367 q 131 265 115 313 q 177 181 146 217 q 253 126 208 146 q 353 106 299 106 q 392 108 372 106 q 432 117 413 110 q 543 178 494 136 q 619 281 592 221 q 638 338 632 308 q 646 399 643 367 l 700 924 m 589 182 l 583 172 q 585 177 585 175 q 589 182 586 179 m 629 254 l 629 251 l 631 260 q 630 258 631 258 q 629 254 629 257 m 651 581 q 643 499 647 540 q 635 417 639 457 q 623 335 631 374 q 592 256 615 296 q 506 165 556 197 q 404 124 457 133 q 301 128 351 115 q 211 172 250 140 q 151 253 172 204 q 136 368 129 303 l 139 368 l 333 368 q 347 329 331 344 q 388 319 364 314 q 425 346 413 324 q 433 366 432 357 q 435 386 433 375 q 444 474 439 431 q 453 561 449 517 q 472 735 463 649 q 489 910 481 822 l 686 910 q 669 745 678 826 q 651 581 661 664 m 572 329 q 580 378 575 339 q 590 462 585 417 q 599 546 594 507 q 603 594 603 585 l 632 861 l 533 861 q 513 673 522 767 q 493 485 504 579 q 488 438 490 461 q 483 390 486 414 q 476 345 481 367 q 450 303 471 324 q 409 275 432 283 q 363 269 386 267 q 322 283 340 271 q 293 318 303 296 l 188 318 q 222 234 194 267 q 286 185 249 201 q 367 171 324 169 q 451 190 411 172 q 524 243 492 208 q 572 329 557 278 m 606 836 l 556 369 q 528 288 550 322 q 474 230 506 253 q 403 199 442 207 q 329 197 365 190 q 264 228 293 204 q 219 293 235 251 l 276 293 q 353 245 304 253 q 447 269 403 238 q 503 351 490 299 q 510 399 510 375 q 514 447 511 424 q 535 642 525 546 q 556 836 544 739 l 606 836 z "},"k":{"ha":660,"x_min":21,"x_max":750,"o":"m 489 514 q 531 408 508 464 q 574 296 553 353 q 617 184 596 239 q 658 79 639 129 l 650 79 l 608 0 l 306 0 l 297 17 l 289 0 l 21 0 l 111 861 l 151 936 l 153 947 l 429 947 l 428 928 q 434 938 431 932 q 439 947 438 943 l 750 947 l 489 514 m 460 514 l 706 922 l 453 922 l 389 815 l 400 922 l 175 922 l 89 104 l 314 104 l 325 211 l 367 104 l 619 104 l 460 514 m 683 908 l 446 514 l 601 119 l 382 119 l 321 272 l 306 119 l 108 119 l 128 317 l 190 908 l 339 908 l 388 908 l 372 757 l 464 908 l 683 908 m 392 514 l 600 860 l 490 860 l 301 546 l 335 860 l 236 860 l 163 168 l 261 168 l 294 482 l 417 168 l 526 168 l 392 514 m 558 835 l 364 514 l 490 193 l 435 193 l 308 514 l 503 835 l 558 835 m 278 567 l 239 193 l 189 193 l 257 835 l 307 835 l 281 588 l 278 567 z "},"l":{"ha":592,"x_min":26,"x_max":604,"o":"m 375 357 l 604 357 l 574 79 l 568 79 l 526 0 l 26 0 l 117 863 l 158 938 l 160 950 l 436 950 l 375 357 m 551 106 l 576 332 l 347 332 l 408 924 l 182 924 l 96 106 l 551 106 m 561 318 l 540 121 l 310 121 l 113 121 l 133 318 l 194 911 l 392 911 l 331 318 l 561 318 l 561 318 m 494 171 l 506 269 l 276 269 l 339 861 l 240 861 l 183 318 l 172 219 l 167 171 l 494 171 l 494 171 m 478 244 l 472 194 l 194 194 l 263 836 l 311 836 l 249 244 l 478 244 l 478 244 z "},"m":{"ha":969,"x_min":33,"x_max":1013,"o":"m 938 869 q 994 775 976 828 q 1006 663 1013 722 l 943 79 l 939 79 l 896 0 l 625 0 l 631 57 l 600 0 l 329 0 l 335 57 l 304 0 l 33 0 l 56 217 q 63 306 58 256 q 74 397 68 357 q 83 488 78 442 q 93 579 88 535 q 133 697 101 640 l 154 733 q 192 807 169 772 q 246 869 215 842 q 344 928 290 908 q 454 949 399 949 q 529 938 494 949 q 596 907 564 928 q 670 938 633 928 q 747 949 707 949 q 852 928 803 949 q 938 869 901 908 m 981 663 q 969 765 985 717 q 918 850 953 814 q 840 904 885 886 q 744 922 794 922 q 593 876 667 922 q 451 922 528 922 q 352 904 401 922 q 263 850 303 886 q 194 765 219 814 q 163 663 168 717 q 142 480 151 571 q 124 299 132 389 l 104 118 l 103 104 l 329 104 l 386 644 q 401 688 390 679 q 426 696 411 696 q 449 688 439 696 q 456 644 460 679 l 399 104 l 625 104 l 682 644 q 697 688 686 679 q 722 696 708 696 q 746 688 736 696 q 751 644 756 679 l 694 104 l 921 104 l 922 118 l 942 300 l 981 663 m 471 643 q 466 688 474 668 q 428 708 458 708 q 386 688 397 708 q 372 643 375 668 q 367 597 369 619 q 363 550 365 574 q 354 471 358 510 q 346 393 350 432 q 345 378 346 386 q 343 363 344 369 l 317 117 l 118 117 q 147 388 133 253 q 176 661 161 524 q 204 753 182 711 q 260 828 226 796 q 336 880 294 860 q 422 905 378 900 q 510 899 467 910 q 592 857 554 888 q 726 906 657 903 q 851 879 796 908 q 940 793 907 850 q 967 661 974 736 q 938 388 953 524 q 908 117 924 253 l 711 117 l 738 363 q 740 388 739 375 q 743 413 740 400 q 750 481 746 447 q 757 550 754 515 q 762 597 760 574 q 767 643 764 619 q 763 688 769 668 q 724 708 756 708 q 682 688 693 708 q 668 643 671 668 l 654 511 l 643 404 q 642 399 643 401 q 642 393 642 396 l 639 363 l 613 117 l 415 117 l 442 363 l 447 413 l 457 511 l 471 643 m 864 165 q 889 407 876 288 q 915 649 901 526 q 897 764 922 713 q 814 842 872 815 q 757 856 785 854 q 696 851 729 858 q 638 829 664 844 q 586 794 613 814 q 540 829 563 814 q 486 851 517 844 q 365 842 425 865 q 267 764 303 815 q 225 649 232 713 q 199 407 211 526 q 174 165 186 288 l 272 165 l 293 363 l 296 393 l 317 589 q 319 613 318 599 q 322 644 319 628 q 327 675 324 660 q 336 700 331 690 q 378 742 351 726 q 433 757 404 757 q 485 742 463 757 q 517 700 507 726 q 520 675 519 690 q 519 644 521 660 q 517 613 518 628 q 514 589 515 599 q 505 501 510 544 q 496 413 500 457 q 492 388 493 400 q 490 363 492 375 l 469 165 l 568 165 l 589 363 l 592 393 l 613 589 q 615 613 614 599 q 619 644 617 628 q 624 675 621 660 q 633 700 628 690 q 674 742 649 726 q 729 757 700 757 q 781 742 758 757 q 813 700 803 726 q 817 675 817 690 q 816 644 817 660 q 813 613 815 628 q 810 589 811 599 q 801 501 806 544 q 792 413 796 457 l 786 363 l 765 165 l 864 165 m 890 643 q 867 417 879 529 q 843 190 854 304 l 793 190 l 811 363 l 817 413 l 838 608 q 843 668 840 639 q 829 726 846 697 q 789 767 814 753 q 732 782 764 782 q 671 767 700 782 q 622 726 642 753 q 597 668 601 697 q 590 608 593 639 q 578 500 583 554 q 567 393 574 446 q 566 378 567 386 q 564 363 565 369 l 546 190 l 497 190 l 515 363 q 517 388 517 375 q 521 413 518 400 l 542 608 q 547 668 544 639 q 532 726 550 697 q 493 767 518 753 q 436 782 468 782 q 375 767 404 782 q 326 726 346 753 q 301 668 304 697 q 294 608 297 639 q 283 500 288 554 q 271 393 278 446 l 268 363 l 250 190 l 201 190 q 225 417 213 304 q 249 643 238 529 q 287 751 256 704 q 382 821 318 799 q 444 833 417 833 q 494 823 471 832 q 538 798 517 814 q 582 764 560 782 q 633 798 608 782 q 682 823 657 814 q 735 833 707 832 q 796 821 763 833 q 875 751 853 799 q 890 643 897 704 z "},"n":{"ha":660,"x_min":28,"x_max":704,"o":"m 665 831 q 692 772 683 800 q 702 715 700 743 q 702 660 704 688 q 696 603 700 632 l 640 79 l 636 79 l 593 0 l 322 0 l 328 57 l 297 0 l 28 0 l 79 501 q 79 515 82 506 q 93 607 85 563 q 125 696 101 651 l 151 740 q 203 831 168 785 q 313 917 249 886 q 446 949 376 949 q 573 917 515 949 q 665 831 631 886 m 671 603 q 677 710 678 658 q 644 815 676 763 q 559 894 613 865 q 443 924 506 924 q 322 894 381 924 q 221 815 263 865 q 187 763 200 789 q 167 710 174 736 q 156 657 160 683 q 149 603 151 631 q 149 594 150 599 q 149 583 149 589 l 97 106 l 322 106 l 379 646 q 394 689 383 681 q 419 697 406 697 q 443 689 433 697 q 449 646 453 681 l 392 106 l 618 106 l 669 583 l 671 603 m 631 807 q 662 699 663 754 q 654 585 661 644 q 629 352 642 467 q 606 119 617 238 l 408 119 l 433 367 q 437 392 436 379 q 439 417 438 404 q 446 485 442 451 q 453 553 450 518 q 458 599 456 576 q 463 646 460 622 q 458 692 465 672 q 419 711 451 711 q 378 692 389 711 q 364 647 367 672 q 359 600 361 624 q 354 553 357 576 q 346 475 350 514 q 338 396 342 436 q 337 381 338 389 q 335 367 336 374 l 310 119 l 113 119 q 136 352 124 238 q 161 585 149 467 q 176 699 167 644 q 231 807 186 754 q 326 883 271 856 q 440 910 381 910 q 550 883 500 910 q 631 807 600 856 m 603 571 q 609 620 606 596 q 614 669 613 644 q 611 717 615 693 q 594 767 607 742 q 530 835 571 811 q 436 860 489 860 q 338 835 385 860 q 258 767 290 811 q 233 717 242 742 q 219 669 224 693 q 213 620 214 644 q 208 571 211 596 q 187 370 197 471 q 165 169 176 269 l 264 169 l 285 367 l 288 396 l 308 592 q 311 617 310 601 q 315 647 313 632 q 321 678 317 663 q 331 703 325 693 q 370 746 344 731 q 425 761 396 761 q 476 746 454 761 q 510 703 499 731 q 514 678 514 693 q 513 647 514 663 q 509 617 511 632 q 506 592 507 601 q 497 504 501 547 q 488 417 492 461 l 482 367 l 461 169 l 560 169 q 581 370 571 269 q 603 571 592 471 m 575 744 q 586 702 583 725 q 588 655 589 679 q 583 607 586 631 q 578 564 579 583 q 558 378 568 471 q 539 193 549 286 l 489 193 l 507 367 l 513 417 q 523 514 518 465 q 533 611 528 563 q 539 672 536 643 q 526 731 542 701 q 485 772 511 757 q 428 786 460 786 q 367 772 396 786 q 319 731 339 757 q 293 672 297 701 q 286 611 289 643 q 274 504 279 558 q 263 396 269 450 l 260 367 l 242 193 l 193 193 q 213 378 203 286 q 232 564 222 471 q 242 655 236 604 q 272 746 247 706 q 343 811 300 788 q 433 835 386 835 q 519 811 482 835 q 575 744 557 788 z "},"o":{"ha":660,"x_min":50,"x_max":701,"o":"m 682 794 q 697 728 693 763 q 697 649 701 693 l 668 381 q 653 299 664 335 q 622 232 642 264 q 613 219 617 225 q 604 207 610 214 l 572 150 q 457 40 528 81 q 307 0 386 0 q 164 40 226 0 q 72 150 101 81 q 54 218 58 183 q 54 297 50 253 l 82 565 q 96 637 86 606 q 122 697 106 668 l 144 739 q 158 768 151 754 q 174 796 164 782 q 291 908 219 867 q 443 949 363 949 q 586 907 522 949 q 682 794 650 865 m 672 649 q 672 722 676 689 q 657 783 668 754 q 571 886 629 849 q 440 924 513 924 q 301 886 365 924 q 196 783 236 849 q 151 649 160 726 l 122 381 q 122 306 118 339 q 139 244 126 274 q 222 142 165 179 q 354 106 279 106 q 492 142 426 106 q 600 244 558 179 q 628 306 618 274 q 643 381 639 339 l 672 649 m 418 379 q 414 356 417 364 q 401 339 411 347 q 379 331 393 331 q 355 340 365 331 q 346 367 344 350 l 376 649 q 381 673 378 664 q 393 689 383 682 q 403 694 399 692 q 415 697 408 697 q 440 688 429 697 q 449 663 450 679 l 418 379 m 656 633 q 642 500 649 567 q 628 367 635 433 q 576 235 619 292 q 473 148 533 178 q 345 119 413 118 q 221 163 278 121 q 144 268 164 204 q 134 331 133 300 q 138 394 135 363 q 152 528 144 461 q 167 663 160 596 q 218 794 175 738 q 321 881 261 850 q 449 909 381 911 q 574 865 517 907 q 650 760 628 825 q 660 697 660 728 q 656 633 660 667 m 604 596 q 610 653 607 625 q 610 707 613 681 q 596 758 607 733 q 563 807 585 783 q 463 858 519 851 q 353 844 406 865 q 261 774 300 822 q 215 663 222 726 l 190 433 q 185 376 188 404 q 185 322 182 347 q 198 271 188 296 q 231 222 208 246 q 331 170 274 178 q 441 185 388 163 q 533 254 494 207 q 579 367 572 301 l 604 596 m 556 775 q 580 728 574 751 q 586 679 586 704 q 583 628 586 654 q 576 576 579 603 q 566 472 571 524 q 554 367 561 419 q 510 264 547 306 q 424 204 474 222 q 324 197 375 186 q 239 253 274 207 q 214 301 221 276 q 207 350 207 325 q 211 401 207 375 q 218 453 215 426 q 228 558 224 506 q 240 663 233 610 q 283 765 246 722 q 369 824 321 807 q 469 831 418 842 q 556 775 521 821 m 492 321 q 501 356 497 332 q 508 407 506 381 q 514 457 511 433 q 518 492 517 481 q 526 577 522 535 q 536 663 531 619 q 515 745 542 714 q 448 784 488 776 q 367 773 408 792 q 303 707 326 754 q 292 672 297 696 q 285 622 288 649 q 280 572 282 596 q 276 538 278 549 q 268 452 272 494 q 258 367 264 410 q 280 284 253 315 q 346 245 307 253 q 426 256 385 238 q 492 321 468 274 m 496 511 q 489 435 492 472 q 479 360 486 397 q 456 307 474 328 q 416 276 439 286 q 368 267 393 267 q 323 280 343 268 q 291 313 303 292 q 282 367 279 335 q 290 442 286 404 q 299 518 294 479 q 305 594 301 556 q 315 669 308 632 q 357 740 324 717 q 426 761 390 763 q 490 735 463 760 q 513 663 517 710 q 504 586 508 624 q 496 511 500 549 m 410 329 q 428 353 425 340 q 432 381 431 365 q 435 409 435 396 q 439 436 436 422 q 450 550 444 494 q 463 663 456 606 q 438 708 465 694 q 383 700 411 721 q 367 676 369 689 q 361 647 364 663 q 359 620 360 633 q 356 592 358 607 q 344 479 350 535 q 332 367 339 424 q 338 338 331 350 q 356 321 344 326 q 383 317 368 315 q 410 329 397 318 z "},"p":{"ha":660,"x_min":28,"x_max":710,"o":"m 453 663 q 439 638 450 647 q 414 628 428 628 l 379 628 l 386 697 l 421 697 q 444 688 435 697 q 453 663 454 678 m 640 864 q 694 771 678 822 q 704 661 710 719 q 683 579 699 618 q 643 507 667 540 l 618 464 q 514 351 579 397 q 369 297 449 306 l 346 79 l 340 79 l 299 0 l 28 0 l 118 863 l 160 938 l 161 949 l 447 949 q 555 927 506 949 q 640 864 604 906 m 390 401 q 494 422 444 401 q 582 477 543 442 q 647 560 621 513 q 679 661 672 607 q 622 847 690 771 q 542 903 588 883 q 444 924 497 924 l 183 924 l 97 106 l 324 106 l 356 401 l 390 401 m 382 575 l 383 578 q 382 575 382 575 m 393 910 q 500 901 451 910 q 593 853 549 893 q 652 768 633 818 q 665 663 671 718 q 630 557 658 607 q 553 472 601 507 q 501 441 526 453 q 450 424 476 429 q 397 417 424 418 q 342 415 371 415 l 311 119 l 114 119 l 196 910 l 344 910 l 393 910 m 522 507 q 598 598 572 543 q 614 711 624 653 q 566 808 606 769 q 469 857 526 847 q 428 859 461 858 q 356 860 394 860 q 283 860 317 860 q 242 860 250 860 l 168 169 l 267 169 l 299 465 q 356 464 328 465 q 410 465 383 463 q 465 477 438 468 q 522 507 493 486 m 592 688 q 564 585 593 633 q 485 511 535 538 q 434 494 458 497 q 382 490 410 490 l 276 490 l 244 193 l 196 193 l 264 835 q 303 835 272 835 q 368 835 333 835 q 433 833 403 835 q 471 831 463 832 q 556 780 524 819 q 592 688 589 740 m 440 544 q 509 589 481 556 q 542 663 538 622 q 524 736 546 703 q 465 781 503 769 q 434 785 457 783 q 385 786 411 786 q 338 786 360 786 q 307 786 315 786 l 281 539 q 311 539 289 539 q 359 539 333 539 q 408 540 385 539 q 440 544 431 542 m 517 663 q 490 603 513 629 q 435 568 467 578 q 410 565 428 565 q 372 564 392 564 q 333 564 351 564 q 308 564 315 564 l 329 761 q 354 761 336 761 q 392 761 372 761 q 431 760 413 761 q 456 757 449 758 q 503 721 486 747 q 517 663 519 694 m 468 663 q 460 692 469 679 q 436 710 451 706 q 405 714 421 715 q 372 713 389 713 l 363 614 q 394 612 379 614 q 426 615 410 610 q 453 633 442 619 q 468 663 465 646 z "},"q":{"ha":660,"x_min":53,"x_max":847,"o":"m 419 376 q 415 353 417 361 q 401 339 413 346 q 378 329 392 329 q 355 339 365 329 q 347 364 344 349 l 376 644 q 381 667 379 658 q 392 686 382 676 q 417 693 401 693 q 440 684 428 693 q 449 660 451 675 l 419 376 m 653 31 l 646 31 l 601 -50 l 311 -50 l 294 0 q 177 33 229 3 q 90 117 125 64 q 54 228 56 171 q 60 343 53 285 l 65 383 q 69 433 68 407 q 72 488 69 460 q 83 569 78 532 q 92 614 89 606 q 124 692 103 657 l 144 732 q 212 840 168 793 q 317 914 256 886 q 379 938 349 929 q 443 946 410 946 q 544 926 496 946 q 628 869 592 907 q 683 782 664 833 q 700 678 701 731 q 700 653 701 667 q 697 628 699 639 l 690 564 q 689 558 690 560 q 686 554 688 557 l 674 424 q 658 313 669 367 q 601 204 646 260 l 594 197 l 653 31 m 617 53 l 569 200 q 608 256 593 228 q 631 311 622 283 q 643 367 639 339 q 650 424 647 394 l 663 554 q 665 571 664 563 q 667 590 665 579 q 671 631 669 611 q 675 674 672 651 q 660 770 678 726 q 610 850 643 814 q 533 902 576 885 q 440 919 489 919 q 322 893 386 919 q 217 811 260 865 q 158 693 174 757 q 153 662 156 686 q 147 605 150 638 q 140 535 143 572 q 135 464 136 497 l 133 450 l 131 424 q 123 315 122 368 q 156 208 124 261 q 240 131 188 160 q 354 103 292 103 l 371 53 l 617 53 m 661 674 q 655 613 658 643 q 649 554 651 582 q 642 493 646 524 q 636 431 639 463 q 629 371 633 400 q 617 313 625 342 q 594 258 608 285 q 554 204 579 231 l 597 65 l 385 65 l 369 117 l 360 117 q 249 143 299 117 q 168 218 200 169 q 145 274 151 246 q 138 331 139 301 q 141 389 138 360 q 149 450 144 418 q 153 494 149 458 q 161 570 157 529 q 169 647 165 611 q 175 692 174 682 q 231 802 190 753 q 329 878 271 851 q 453 903 392 907 q 561 871 514 900 q 636 790 608 842 q 661 674 664 739 m 588 408 q 599 518 594 464 q 611 628 604 572 q 607 731 618 686 q 547 817 596 776 q 451 853 507 849 q 344 833 396 858 q 259 761 293 808 q 218 660 225 714 q 206 551 210 606 q 196 442 201 497 q 188 338 189 388 q 218 238 186 288 q 300 176 254 188 q 404 168 346 165 l 424 117 l 528 117 l 499 214 q 540 263 525 242 q 565 304 556 283 q 579 349 575 325 q 588 408 583 374 m 539 790 q 572 747 561 769 q 585 702 582 725 q 586 654 588 679 q 582 603 585 629 q 572 501 576 553 q 561 399 567 450 q 552 340 557 363 q 538 299 547 318 q 513 262 528 281 q 472 215 497 243 l 493 143 l 442 143 l 424 193 q 373 192 397 192 q 326 197 349 192 q 281 213 303 201 q 240 249 260 225 q 217 294 224 271 q 210 341 211 317 q 213 390 210 365 q 218 440 215 415 q 228 542 224 490 q 239 643 233 593 q 272 742 246 697 q 353 811 299 786 q 452 828 401 835 q 539 790 503 822 m 494 317 q 503 352 500 328 q 510 402 507 376 q 515 452 514 428 q 518 488 517 476 q 528 573 524 531 q 536 656 532 615 q 515 738 542 707 q 449 778 488 769 q 369 769 410 786 q 304 704 328 751 q 294 669 299 693 q 288 618 290 644 q 283 567 285 592 q 279 532 281 543 q 270 449 275 492 q 261 364 265 407 q 283 281 256 313 q 349 242 310 250 q 430 252 389 235 q 494 317 471 269 m 497 507 q 491 431 493 468 q 478 356 489 394 q 438 286 471 308 q 370 265 406 264 q 308 291 335 267 q 288 364 282 315 q 295 438 292 401 q 303 514 299 475 q 310 589 307 551 q 319 663 313 626 q 360 733 326 710 q 428 756 393 757 q 491 729 464 754 q 513 656 518 704 q 506 583 510 619 q 497 507 501 546 m 413 324 q 430 351 426 339 q 435 376 433 363 q 438 406 436 392 q 440 435 439 419 q 453 544 447 489 q 464 656 458 600 q 458 684 465 672 q 439 701 451 696 q 412 705 426 707 q 385 693 397 703 q 368 670 371 682 q 363 643 365 658 q 360 616 361 629 q 357 588 358 603 q 345 475 350 532 q 333 364 340 418 q 340 335 332 347 q 359 317 347 324 q 385 312 371 311 q 413 324 400 313 m 847 944 l 847 946 l 847 944 m 847 946 l 847 944 l 847 946 z "},"s":{"ha":660,"x_min":50,"x_max":710,"o":"m 663 476 q 672 364 679 424 q 608 210 664 278 l 586 169 q 518 85 561 122 q 313 0 426 0 q 210 21 260 0 q 124 78 160 42 q 67 170 85 117 q 57 283 50 224 l 61 319 l 101 394 l 103 406 l 129 406 q 97 472 107 439 q 88 582 81 525 q 124 694 92 639 l 146 735 q 183 803 161 771 q 236 864 204 836 q 335 927 282 906 q 444 949 389 949 q 550 928 500 949 q 636 871 600 908 q 693 777 676 831 q 703 663 710 724 l 699 622 l 693 622 l 650 543 l 628 543 q 663 476 650 514 m 550 182 q 638 316 614 240 q 638 467 661 392 q 554 585 614 542 q 414 628 494 628 q 393 635 400 628 q 383 650 386 642 q 383 667 381 657 q 394 688 385 678 q 408 696 401 694 q 419 697 415 697 q 444 688 433 697 q 453 663 454 679 l 451 649 l 676 649 l 678 663 q 617 853 689 776 q 538 905 583 886 q 442 924 492 924 q 342 904 392 924 q 251 847 292 885 q 166 714 189 789 q 165 564 143 639 q 248 444 188 488 q 390 401 308 401 q 410 394 403 401 q 419 381 417 388 q 421 362 422 372 q 408 342 419 351 q 395 333 401 335 q 383 332 389 332 q 360 341 369 332 q 351 367 350 350 l 353 381 l 126 381 l 125 367 q 135 262 119 311 q 188 176 151 213 q 265 124 219 142 q 360 106 310 106 q 550 182 465 106 m 664 665 l 467 665 q 453 703 469 689 q 413 714 436 718 q 376 688 389 708 q 368 646 363 668 q 398 617 378 618 q 440 614 418 615 q 482 606 463 611 q 521 589 501 600 q 585 535 560 568 q 624 463 611 503 q 633 379 636 424 q 613 292 631 335 q 562 215 593 249 q 492 158 531 181 q 409 127 453 136 q 321 125 365 118 q 241 154 276 132 q 181 208 206 176 q 146 281 157 240 q 139 368 135 322 l 336 368 q 350 330 333 344 q 390 321 367 315 q 427 345 414 325 q 433 388 440 365 q 422 408 429 401 q 405 416 414 414 q 385 418 396 418 q 363 419 374 418 q 282 444 319 425 q 217 498 243 465 q 179 570 192 531 q 169 653 167 610 q 190 742 171 697 q 240 819 208 785 q 310 875 271 853 q 392 906 349 897 q 481 908 436 915 q 561 879 525 901 q 622 825 597 857 q 657 752 646 793 q 664 665 668 711 m 508 714 l 614 714 q 585 788 607 756 q 529 838 563 819 q 456 861 496 857 q 374 853 415 865 q 299 811 332 839 q 246 747 265 783 q 220 670 226 711 q 226 590 214 629 q 328 481 250 511 q 365 472 346 474 q 403 467 383 469 q 469 429 447 465 q 482 353 493 394 q 432 288 471 311 q 353 273 394 264 q 296 319 313 282 l 190 319 q 218 246 196 278 q 273 195 240 214 q 346 172 306 176 q 428 182 386 168 q 503 224 469 196 q 556 287 536 251 q 583 363 576 322 q 576 443 589 403 q 475 553 553 522 q 438 562 457 560 q 399 567 418 564 q 332 604 356 568 q 318 641 321 621 q 321 681 315 661 q 339 717 326 700 q 371 747 351 735 q 449 761 408 771 q 508 714 489 751 m 581 739 l 522 739 q 463 784 500 775 q 390 781 426 793 q 325 738 353 769 q 293 663 297 707 q 310 590 290 622 q 368 547 331 558 q 405 541 386 540 q 440 538 424 542 q 478 525 461 533 q 510 503 494 517 q 551 441 539 476 q 558 368 563 406 q 533 294 554 331 q 478 233 513 258 q 403 199 442 207 q 328 200 364 192 q 265 233 293 208 q 222 294 236 257 l 279 294 q 340 249 303 258 q 414 252 378 240 q 478 295 450 264 q 510 371 506 326 q 492 443 513 411 q 435 486 471 475 q 399 492 417 493 q 361 496 381 492 q 325 509 342 501 q 294 531 308 517 q 253 592 265 557 q 244 665 240 628 q 269 739 249 703 q 324 800 289 775 q 398 834 358 826 q 474 833 438 842 q 538 801 510 825 q 581 739 567 776 z "},"t":{"ha":610,"x_min":90,"x_max":675,"o":"m 161 950 l 675 950 l 646 672 l 640 672 l 596 593 l 518 593 l 465 81 l 461 81 l 417 0 l 146 0 l 207 593 l 90 593 l 119 863 l 161 939 l 161 950 m 622 697 l 646 924 l 185 924 l 161 697 l 278 697 l 215 106 l 442 106 l 504 697 l 622 697 m 631 913 l 610 715 l 492 715 l 429 124 l 232 124 l 294 715 l 178 715 l 199 913 l 631 913 l 631 913 m 565 765 l 576 864 l 242 864 l 231 765 l 347 765 l 286 172 l 385 172 l 446 765 l 565 765 l 565 765 m 549 839 l 543 789 l 425 789 l 363 197 l 313 197 l 375 789 l 257 789 l 263 839 l 549 839 l 549 839 z "},"u":{"ha":660,"x_min":53,"x_max":732,"o":"m 732 947 l 672 379 q 656 299 668 335 q 624 232 643 264 q 614 217 618 224 q 606 203 610 210 l 582 163 l 575 150 q 460 40 532 79 q 310 0 389 0 q 167 40 231 0 q 74 150 103 79 q 56 217 58 182 q 57 297 53 253 l 117 861 l 158 936 l 160 947 l 436 947 l 431 893 l 453 936 l 454 947 l 732 947 m 703 921 l 478 921 l 421 381 q 406 338 418 347 q 379 329 394 329 q 357 338 367 329 q 350 381 347 347 l 407 921 l 182 921 l 125 379 q 140 243 117 300 q 226 141 168 178 q 356 104 283 104 q 497 141 431 104 q 603 243 563 178 q 632 306 622 274 q 646 379 642 339 l 703 921 m 638 443 q 632 385 635 414 q 622 330 629 357 q 602 275 615 303 q 567 221 589 247 q 472 146 526 172 q 358 119 418 119 q 248 146 299 119 q 168 221 197 172 q 137 329 136 275 q 144 443 138 383 q 169 676 157 561 q 193 908 182 792 l 390 908 l 365 663 q 362 638 363 650 q 360 613 361 625 q 352 544 356 578 q 344 475 349 510 q 340 428 342 451 q 335 382 338 406 q 339 337 332 357 q 378 317 346 317 q 419 337 408 317 q 433 382 431 357 q 438 428 436 406 q 443 475 440 451 q 451 553 447 515 q 460 632 456 592 q 462 647 461 639 q 464 663 463 654 l 489 908 l 686 908 q 663 676 675 792 q 638 443 650 561 m 540 263 q 566 310 557 286 q 580 359 575 335 q 586 408 585 383 q 590 457 588 432 q 612 658 601 558 q 633 860 622 758 l 535 860 l 514 663 l 510 632 q 499 534 504 583 q 490 436 494 485 q 488 411 489 426 q 484 381 486 396 q 478 350 482 365 q 468 325 474 335 q 427 283 453 299 q 374 267 401 267 q 322 283 344 267 q 289 325 299 299 q 285 350 285 335 q 286 381 285 365 q 290 412 288 397 q 293 436 292 426 q 301 524 297 481 q 311 613 306 568 l 317 663 l 338 860 l 238 860 q 216 658 226 758 q 194 457 206 558 q 184 359 189 407 q 204 263 179 311 q 269 193 228 218 q 363 168 310 168 q 461 193 414 168 q 540 263 508 218 m 567 465 q 557 374 563 425 q 526 283 551 322 q 456 217 499 242 q 365 193 413 193 q 279 217 317 193 q 222 283 242 242 q 211 374 206 324 q 221 465 217 425 q 240 649 231 557 q 260 835 249 742 l 310 835 l 292 663 l 286 613 l 265 417 q 260 357 263 386 q 272 299 257 328 q 313 258 288 272 q 371 243 339 243 q 431 258 403 243 q 479 299 460 272 q 505 357 501 328 q 511 417 508 386 q 522 524 517 471 q 533 632 528 578 l 538 663 l 556 835 l 606 835 q 585 649 594 742 q 567 465 576 557 z "},"v":{"ha":660,"x_min":111,"x_max":739,"o":"m 457 949 l 739 949 l 511 79 l 504 79 l 463 0 l 156 0 l 111 863 l 154 940 l 154 949 l 433 949 l 436 903 l 453 932 l 457 949 m 492 106 l 707 924 l 476 924 l 421 703 l 408 924 l 179 924 l 222 106 l 492 106 m 688 911 l 481 122 l 236 122 l 194 911 l 394 911 l 410 614 l 488 911 l 688 911 l 688 911 m 443 171 l 625 863 l 525 863 l 376 297 l 347 863 l 247 863 l 283 171 l 443 171 l 443 171 m 594 838 l 425 196 l 375 196 l 357 196 l 307 196 l 274 838 l 324 838 l 354 258 l 392 258 l 544 838 l 594 838 l 594 838 z "},"w":{"ha":961,"x_min":54,"x_max":1031,"o":"m 999 639 q 994 594 996 615 q 990 549 993 572 q 985 502 988 525 q 979 457 982 479 l 969 365 q 949 286 965 325 q 910 213 933 247 l 883 167 q 811 79 857 119 q 715 21 768 42 q 608 0 663 0 q 465 43 526 0 q 313 0 393 0 q 209 21 258 0 q 124 79 160 42 q 71 172 88 118 q 58 283 54 226 q 67 370 63 324 q 76 465 71 417 q 85 559 81 513 q 94 646 90 606 l 104 736 q 110 782 107 760 q 115 826 113 804 l 119 863 l 163 939 l 163 949 l 439 949 l 433 894 l 458 939 l 458 949 l 735 949 l 729 894 l 754 939 l 754 949 l 1031 949 l 999 639 m 943 365 q 964 548 954 457 q 982 729 974 639 l 1000 910 l 1001 924 l 776 924 l 721 383 q 706 342 717 350 q 681 333 694 333 q 656 342 667 333 q 650 383 646 350 l 706 924 l 481 924 l 425 383 q 410 342 421 350 q 383 333 399 333 q 360 342 371 333 q 354 383 350 350 l 410 924 l 185 924 l 183 910 q 174 819 179 864 q 164 729 168 774 q 144 548 154 639 q 126 365 135 457 q 137 263 121 311 q 188 178 153 214 q 265 124 219 143 q 360 106 310 106 q 514 151 440 106 q 580 117 544 129 q 654 106 615 106 q 753 124 704 106 q 843 178 803 143 q 912 263 886 214 q 943 365 938 311 m 439 385 l 453 517 l 464 625 q 465 635 464 632 l 468 665 l 494 913 l 692 913 l 665 665 l 660 615 l 650 517 l 636 385 q 641 340 633 360 q 679 319 649 319 q 721 340 710 319 q 735 385 732 360 q 740 431 738 408 q 744 478 742 454 q 753 557 749 518 q 761 635 757 596 q 762 650 761 642 q 764 665 763 658 l 790 913 l 989 913 l 931 367 q 877 235 922 292 q 770 149 832 178 q 640 123 708 119 q 515 172 571 126 q 381 123 450 126 q 255 149 311 119 q 166 235 199 178 q 140 367 133 292 q 169 640 154 504 q 199 913 183 775 l 396 913 l 369 665 q 367 640 368 653 q 364 615 365 628 q 357 547 361 581 q 350 478 353 513 q 345 431 347 454 q 340 385 343 408 q 345 340 338 360 q 383 319 353 319 q 425 340 414 319 q 439 385 436 360 m 882 379 q 908 621 894 501 q 933 863 921 740 l 835 863 l 814 665 l 811 635 q 801 538 806 586 q 790 440 796 489 q 788 415 789 431 q 784 384 786 400 q 778 353 782 368 q 769 328 775 338 q 728 286 754 301 q 674 271 703 271 q 622 286 644 271 q 589 328 600 301 q 586 353 586 338 q 587 384 586 368 q 590 415 588 400 q 593 440 592 431 q 602 528 597 485 q 611 615 607 571 q 614 640 613 628 q 617 665 615 653 l 638 863 l 539 863 l 518 665 l 515 635 q 505 538 510 586 q 494 440 500 489 q 492 415 493 431 q 488 384 490 400 q 482 353 486 368 q 472 328 478 338 q 433 286 458 301 q 378 271 407 271 q 326 286 349 271 q 293 328 304 301 q 289 353 289 338 q 290 384 289 368 q 294 415 292 400 q 297 440 296 431 q 306 528 301 485 q 315 615 311 571 l 321 665 l 342 863 l 243 863 q 217 621 231 740 q 192 379 204 501 q 210 264 185 315 q 293 186 235 213 q 349 172 321 175 q 411 176 378 169 q 469 199 443 183 q 521 233 494 214 q 567 199 544 214 q 621 176 590 183 q 681 172 653 169 q 742 186 710 175 q 840 264 804 213 q 882 379 875 315 m 906 838 q 881 611 893 724 q 858 385 869 499 q 819 276 851 324 q 725 207 788 229 q 663 195 690 194 q 613 205 636 196 q 567 230 589 214 q 524 264 546 246 q 474 230 499 246 q 425 205 450 214 q 372 195 400 196 q 311 207 344 194 q 231 276 253 229 q 217 385 210 324 q 240 611 228 499 q 264 838 251 724 l 314 838 l 296 665 l 290 615 l 269 419 q 264 360 267 389 q 276 301 261 331 q 317 260 292 275 q 375 246 343 246 q 435 260 407 246 q 483 301 464 275 q 510 360 506 331 q 517 421 514 389 q 528 528 524 474 q 540 635 533 582 q 541 650 540 642 q 543 665 542 658 l 561 838 l 610 838 l 592 665 q 589 640 590 653 q 586 615 588 628 l 565 419 q 560 360 563 389 q 574 301 557 331 q 614 260 589 275 q 671 246 639 246 q 731 260 703 246 q 779 301 760 275 q 806 360 803 331 q 813 421 810 389 q 824 528 819 474 q 836 635 829 582 l 839 665 l 857 838 l 906 838 z "},"x":{"ha":701,"x_min":11,"x_max":788,"o":"m 642 268 l 696 79 l 688 79 l 646 0 l 356 0 l 336 63 l 303 0 l 11 0 l 50 79 l 228 431 q 197 537 213 482 q 165 647 181 592 q 132 758 149 703 q 101 863 115 813 l 144 940 l 142 949 l 440 949 l 458 890 l 488 949 l 788 949 l 567 514 l 642 268 m 661 104 l 540 514 l 747 924 l 503 924 l 451 818 l 421 924 l 176 924 l 297 514 l 90 104 l 335 104 l 388 210 l 417 104 l 661 104 m 725 911 l 526 517 l 643 121 l 431 121 l 392 250 l 328 121 l 115 121 l 314 517 l 197 911 l 410 911 l 449 782 l 513 911 l 725 911 m 474 517 l 649 861 l 542 861 l 435 649 l 372 861 l 265 861 l 368 517 l 192 171 l 299 171 l 407 383 l 468 171 l 575 171 l 474 517 m 608 838 l 447 517 l 540 196 l 488 196 l 414 450 l 285 196 l 231 196 l 394 517 l 299 838 l 353 838 l 428 583 l 556 838 l 608 838 z "},"z":{"ha":660,"x_min":17,"x_max":746,"o":"m 707 682 l 671 615 l 461 356 l 683 356 l 654 79 l 649 79 l 607 0 l 17 0 l 44 269 l 88 346 l 88 356 l 106 356 l 232 511 l 296 593 l 78 593 l 107 863 l 150 939 l 150 950 l 746 950 l 719 697 l 707 682 m 657 331 l 393 331 l 696 707 l 718 924 l 172 924 l 149 697 l 413 697 l 118 331 l 111 331 l 86 106 l 632 106 l 657 331 m 639 319 l 618 122 l 101 122 l 122 319 l 122 319 l 440 714 l 164 714 l 183 911 l 700 911 l 681 714 l 363 319 l 639 319 l 639 319 m 572 171 l 583 269 l 263 269 l 632 729 l 646 863 l 228 863 l 217 764 l 539 764 l 168 303 l 154 171 l 572 171 l 572 171 m 557 246 l 551 196 l 182 196 l 193 296 l 589 789 l 244 789 l 250 838 l 619 838 l 608 738 l 213 246 l 557 246 l 557 246 z "},":":{"ha":364,"x_min":35,"x_max":425,"o":"m 233 357 q 287 346 263 357 q 328 316 311 335 q 352 272 344 297 q 357 218 360 246 q 344 172 354 194 q 319 133 335 150 l 294 90 l 293 90 l 294 90 l 290 81 q 235 22 271 44 q 158 0 200 0 q 107 10 131 0 q 67 40 83 21 q 42 83 50 58 q 38 135 35 107 q 43 163 39 150 q 54 189 47 176 l 85 243 q 140 324 99 292 q 233 357 182 357 m 206 104 q 289 138 253 104 q 331 218 325 171 q 307 297 336 264 q 231 331 278 331 q 147 297 183 331 q 104 218 110 264 q 128 138 99 171 q 206 104 158 104 m 231 318 q 297 289 271 318 q 318 219 322 260 q 282 149 314 178 q 210 121 250 121 q 143 149 169 121 q 121 219 117 178 q 158 289 125 260 q 231 318 190 318 m 268 219 q 258 253 271 239 q 225 268 246 268 q 188 253 204 268 q 169 219 172 239 q 180 184 167 199 q 214 169 193 169 q 250 184 235 169 q 268 219 265 199 m 222 244 q 240 238 233 244 q 244 219 246 231 q 235 201 243 208 q 217 194 228 194 q 199 201 206 194 q 194 219 193 208 q 203 238 196 231 q 222 244 211 244 m 299 953 q 352 942 328 953 q 393 912 376 931 q 417 867 410 893 q 422 814 425 842 q 410 768 419 790 q 385 729 400 746 l 360 686 l 358 686 l 360 686 l 356 676 q 301 618 336 640 q 224 596 265 596 q 172 606 196 596 q 132 635 149 617 q 108 678 115 654 q 103 731 100 703 q 108 759 104 746 q 119 785 113 772 l 150 839 q 206 920 164 888 q 299 953 247 953 m 271 700 q 354 733 318 700 q 396 814 390 767 q 372 893 401 860 q 296 926 343 926 q 212 893 249 926 q 169 814 175 860 q 194 733 164 767 q 271 700 224 700 m 296 914 q 362 885 336 914 q 383 815 388 856 q 347 745 379 774 q 275 717 315 717 q 208 745 235 717 q 186 815 182 774 q 223 885 190 856 q 296 914 256 914 m 333 815 q 324 849 336 835 q 290 864 311 864 q 253 849 269 864 q 235 815 238 835 q 245 780 232 794 q 279 765 258 765 q 315 780 300 765 q 333 815 331 794 m 288 840 q 305 833 299 840 q 310 815 311 826 q 301 797 308 804 q 282 790 293 790 q 265 797 271 790 q 260 815 258 804 q 269 833 261 826 q 288 840 276 840 z "},";":{"ha":364,"x_min":29,"x_max":425,"o":"m 299 953 q 352 942 328 953 q 393 912 376 931 q 417 867 410 893 q 422 814 425 842 q 410 768 419 790 q 385 729 400 746 l 360 686 l 358 686 l 360 686 l 356 676 q 301 618 336 640 q 224 596 265 596 q 172 606 196 596 q 132 635 149 617 q 108 678 115 654 q 103 731 100 703 q 108 759 104 746 q 119 785 113 772 l 150 839 q 206 920 164 888 q 299 953 247 953 m 271 700 q 354 733 318 700 q 396 814 390 767 q 372 893 401 860 q 296 926 343 926 q 212 893 249 926 q 169 814 175 860 q 194 733 164 767 q 271 700 224 700 m 296 914 q 362 885 336 914 q 383 815 388 856 q 347 745 379 774 q 275 717 315 717 q 208 745 235 717 q 186 815 182 774 q 223 885 190 856 q 296 914 256 914 m 333 815 q 324 849 336 835 q 290 864 311 864 q 253 849 269 864 q 235 815 238 835 q 245 780 232 794 q 279 765 258 765 q 315 780 300 765 q 333 815 331 794 m 288 840 q 305 833 299 840 q 310 815 311 826 q 301 797 308 804 q 282 790 293 790 q 265 797 271 790 q 260 815 258 804 q 269 833 261 826 q 288 840 276 840 m 356 236 q 354 206 361 219 q 292 56 342 126 l 272 26 l 274 26 l 269 17 q 151 -117 228 -57 q 133 -126 143 -122 q 113 -131 124 -131 q 72 -114 88 -131 q 57 -74 57 -97 q 58 -49 57 -61 q 56 -28 58 -36 q 53 -14 54 -21 q 47 1 51 -7 l 47 6 q 44 10 46 8 q 42 19 42 13 q 32 75 35 44 q 36 138 29 106 q 53 190 40 165 l 88 251 q 142 326 103 296 q 231 356 182 356 q 284 346 263 356 q 325 314 306 336 q 351 268 343 293 l 357 243 l 356 236 m 329 211 q 332 225 332 215 l 332 228 q 331 233 332 231 q 331 238 331 235 l 326 260 q 317 280 322 271 q 306 296 313 289 q 272 322 290 314 q 229 331 254 331 q 147 298 183 331 q 104 218 111 265 q 101 160 97 188 q 110 108 104 133 l 115 89 q 124 61 122 74 q 126 35 126 49 q 125 11 125 22 q 135 -15 125 -4 q 160 -25 144 -25 q 185 -17 174 -25 q 285 88 249 32 q 329 211 322 144 m 317 224 q 318 220 317 222 q 317 218 319 218 q 272 93 310 147 q 178 -4 235 39 q 152 -8 165 -14 q 140 14 139 -1 q 140 40 140 28 q 138 65 140 53 q 132 91 136 79 q 125 115 128 103 q 115 167 118 142 q 119 219 113 192 q 156 289 124 260 q 229 318 189 318 q 294 289 269 318 q 314 257 307 275 q 316 247 315 251 q 317 238 317 243 q 317 233 317 235 q 318 228 318 231 q 317 224 318 225 m 190 67 q 244 135 225 100 q 268 218 263 171 l 268 219 q 257 255 271 240 q 222 268 243 269 q 185 253 200 268 q 168 217 171 238 l 168 214 q 167 206 167 210 q 165 197 167 201 q 166 191 165 194 q 165 185 167 188 q 167 167 167 176 q 169 151 168 158 q 176 124 172 138 q 183 97 179 111 q 186 90 186 94 q 188 82 186 86 q 190 67 188 78 m 243 218 q 203 118 238 164 q 197 144 200 131 q 192 169 193 157 q 192 182 192 176 q 190 193 192 188 q 191 203 192 199 q 192 211 190 207 q 193 215 193 213 q 199 235 194 228 q 219 243 204 242 q 238 238 231 244 q 243 219 244 231 l 243 218 z "},"H":{"ha":660,"x_min":25,"x_max":732,"o":"m 454 949 l 732 949 l 640 79 l 635 79 l 592 0 l 322 0 l 328 57 l 296 0 l 25 0 l 115 863 l 157 938 l 158 949 l 435 949 l 429 896 l 453 938 l 454 949 m 617 106 l 703 924 l 476 924 l 446 628 l 376 628 l 407 924 l 181 924 l 94 106 l 321 106 l 353 401 l 422 401 l 390 106 l 617 106 m 635 414 l 603 117 l 404 117 l 436 414 l 338 414 l 306 117 l 108 117 l 140 414 l 161 611 l 192 907 l 389 907 l 358 611 l 457 611 l 488 907 l 686 907 l 656 611 l 635 414 l 635 414 m 558 167 l 631 857 l 532 857 l 501 561 l 304 561 l 335 857 l 236 857 l 164 167 l 263 167 l 293 463 l 490 463 l 460 167 l 558 167 l 558 167 m 604 833 l 536 192 l 488 192 l 518 488 l 271 488 l 240 192 l 192 192 l 260 833 l 308 833 l 276 536 l 524 536 l 556 833 l 604 833 l 604 833 z "},"D":{"ha":660,"x_min":25,"x_max":707,"o":"m 418 365 q 409 344 417 354 q 390 332 401 335 q 367 331 383 331 l 350 331 l 344 331 l 382 699 l 388 699 q 397 699 393 699 q 404 700 401 700 q 428 696 417 700 q 431 694 429 696 q 432 693 432 694 l 435 693 l 436 693 l 438 692 l 439 692 l 439 690 l 440 689 l 442 688 l 443 688 l 443 686 l 443 685 l 447 679 q 449 678 449 679 l 449 676 l 449 672 q 450 671 449 672 l 450 669 q 450 652 451 661 q 446 633 449 643 l 444 614 l 432 490 l 426 447 l 418 365 m 444 949 q 554 926 504 949 q 639 865 604 904 q 690 774 674 826 q 701 663 707 722 l 669 367 q 649 285 665 324 q 608 213 633 246 l 583 168 q 469 47 543 93 q 308 0 396 0 l 25 0 l 115 863 l 157 938 l 158 949 l 444 949 m 675 663 q 665 764 681 717 q 618 847 650 811 q 541 903 586 882 q 442 924 496 924 l 181 924 l 94 106 l 356 106 q 459 126 410 106 q 547 181 508 146 q 612 265 586 217 q 643 367 638 313 l 675 663 m 663 663 l 631 367 q 601 271 625 315 q 540 193 578 226 q 456 140 503 160 q 358 121 410 121 l 310 121 l 260 121 l 113 121 l 194 910 l 342 910 l 392 910 l 440 910 q 535 890 492 910 q 608 838 578 871 q 653 759 638 804 q 663 663 668 714 m 581 367 l 613 663 q 605 740 617 704 q 569 802 593 775 q 512 844 546 829 q 436 860 478 860 l 388 860 l 338 860 l 239 860 l 165 169 l 314 169 l 363 169 q 442 185 404 169 q 508 227 479 200 q 557 290 538 254 q 581 367 576 326 m 589 663 l 557 367 q 536 299 553 331 q 493 244 519 268 q 434 208 467 221 q 365 194 401 194 l 340 194 l 317 194 l 193 194 l 261 836 l 335 836 l 385 836 l 433 836 q 499 822 469 836 q 551 785 529 808 q 583 730 572 761 q 589 663 593 699 m 507 367 l 539 663 q 512 750 544 714 q 428 786 479 786 l 304 786 l 296 713 l 265 417 l 247 243 l 371 243 q 462 279 422 243 q 507 367 501 315 m 514 663 l 482 367 q 446 297 478 326 q 374 268 414 268 l 275 268 l 290 417 l 321 713 l 326 761 l 425 761 q 492 732 465 761 q 514 663 518 703 m 433 365 q 440 428 438 397 q 447 490 443 458 l 460 615 q 465 645 463 631 q 465 675 468 660 q 464 678 464 676 l 464 679 q 463 681 464 681 l 463 682 q 461 685 463 683 l 461 686 q 460 689 461 688 q 458 690 460 690 l 458 693 q 457 694 457 693 q 454 697 457 694 q 453 699 453 697 q 451 700 451 699 q 450 701 450 701 q 447 703 449 703 q 444 706 446 704 q 443 706 443 706 q 442 707 443 707 q 438 708 440 708 q 435 710 436 710 q 432 711 433 710 q 401 714 417 715 q 371 713 386 713 l 361 614 l 331 318 q 360 317 346 318 q 393 319 375 315 q 419 336 408 324 q 433 365 431 349 z "},"I":{"ha":367,"x_min":25,"x_max":435,"o":"m 158 949 l 435 949 l 343 79 l 339 79 l 296 0 l 25 0 l 115 863 l 157 938 l 158 949 m 321 106 l 407 924 l 181 924 l 94 106 l 321 106 m 392 910 l 310 119 l 113 119 l 194 910 l 392 910 l 392 910 m 264 169 l 338 860 l 239 860 l 165 169 l 264 169 l 264 169 m 311 835 l 243 194 l 193 194 l 261 835 l 311 835 l 311 835 z "},"B":{"ha":660,"x_min":28,"x_max":708,"o":"m 454 667 q 440 641 451 651 q 415 631 429 631 l 381 631 l 389 701 l 424 701 q 447 692 438 701 q 454 667 456 682 m 422 365 q 410 340 421 350 q 385 331 399 331 l 350 331 l 357 400 l 392 400 q 415 390 406 400 q 422 365 425 381 m 588 167 l 593 176 l 588 167 m 676 386 q 663 310 674 347 q 632 239 653 272 q 614 213 624 225 l 611 210 l 610 208 l 601 190 l 597 185 l 600 189 l 594 181 l 588 167 l 581 157 q 532 93 561 121 q 469 44 503 65 q 311 0 397 0 l 28 0 l 118 863 l 160 938 l 161 950 l 447 950 q 600 903 536 950 l 600 904 q 651 855 629 885 q 689 790 674 825 q 706 719 703 758 q 703 643 708 679 q 683 575 697 608 q 650 514 669 542 q 672 453 665 486 q 676 386 678 421 m 608 250 q 650 385 647 313 q 618 514 654 457 q 657 576 642 543 q 676 644 672 610 q 680 713 683 679 q 664 779 676 747 q 631 837 651 811 q 583 882 610 863 q 444 924 525 924 l 183 924 l 97 106 l 358 106 q 507 146 439 106 q 608 250 569 188 m 618 222 l 621 225 l 624 231 l 618 222 m 264 122 l 115 122 l 199 913 l 347 913 q 428 913 389 913 q 503 905 468 913 q 570 877 539 897 q 629 817 601 857 q 660 745 651 783 q 666 667 669 707 q 646 589 663 628 q 601 517 629 550 q 631 444 622 483 q 635 366 639 406 q 613 288 631 326 q 567 217 596 250 q 495 157 531 176 q 422 130 460 138 q 345 122 385 122 q 264 122 306 122 m 613 644 q 616 717 621 685 q 592 781 611 749 q 540 835 568 818 q 481 859 513 853 q 414 864 449 865 q 342 863 379 863 l 243 863 l 171 172 l 269 172 q 342 171 307 172 q 409 176 376 169 q 474 199 442 182 q 536 254 506 217 q 574 318 563 286 q 586 390 586 350 q 572 458 586 429 q 539 517 558 488 q 585 576 565 547 q 613 644 604 606 m 339 838 q 406 840 372 838 q 472 835 439 842 q 531 810 508 826 q 572 761 554 793 q 593 699 590 729 q 585 633 596 669 q 553 571 574 597 q 508 517 532 544 q 542 464 526 490 q 561 401 558 438 q 554 335 564 365 q 521 274 544 306 q 406 200 475 214 q 338 195 371 193 q 271 197 304 197 l 196 197 l 264 838 l 339 838 m 442 547 q 510 592 482 558 q 543 665 539 625 q 526 740 547 707 q 467 783 506 772 q 435 788 458 786 q 387 789 413 789 q 339 789 361 789 q 308 789 317 789 l 282 542 q 313 542 290 542 q 360 542 335 542 q 409 543 386 542 q 442 547 432 544 m 411 251 q 479 295 451 263 q 511 369 507 328 q 495 443 517 410 q 435 488 474 476 q 404 492 426 490 q 356 493 382 493 q 308 493 331 493 q 278 493 286 493 l 251 246 q 282 246 260 246 q 330 246 304 246 q 378 247 356 246 q 411 251 401 249 m 518 665 q 492 607 515 633 q 438 571 469 581 q 411 567 429 568 q 373 567 393 567 q 335 567 353 567 q 310 567 317 567 l 331 764 q 356 764 338 764 q 394 764 374 764 q 432 763 414 764 q 457 760 450 761 q 504 724 488 750 q 518 665 521 699 m 468 665 q 462 695 471 682 q 438 713 453 708 q 406 717 422 718 q 375 715 390 715 l 364 615 q 395 614 379 615 q 428 618 411 613 q 455 635 444 622 q 468 665 465 649 m 486 369 q 460 310 483 336 q 406 275 438 285 q 381 272 399 272 q 342 271 363 271 q 304 271 322 271 q 279 271 286 271 l 300 468 q 325 468 307 468 q 363 468 343 468 q 401 467 383 468 q 426 464 419 465 q 474 428 457 454 q 486 369 490 401 m 436 369 q 426 403 439 389 q 393 418 413 418 l 343 418 l 333 319 l 383 319 q 418 334 403 319 q 436 369 433 349 z "},"R":{"ha":660,"x_min":28,"x_max":707,"o":"m 703 661 q 647 514 694 582 q 671 419 669 467 q 667 321 672 371 l 640 79 l 636 79 l 593 0 l 324 0 l 329 57 l 297 0 l 28 0 l 118 863 l 158 936 l 160 949 l 406 949 q 476 946 442 949 q 543 931 511 943 q 605 898 575 919 q 660 839 635 876 q 697 755 688 800 q 703 661 707 710 m 393 369 l 374 332 l 393 368 l 393 369 m 642 321 q 645 420 647 374 q 615 514 643 467 q 659 589 643 549 q 678 669 675 629 q 671 749 681 710 q 639 822 661 789 q 588 876 615 857 q 530 906 560 896 q 468 919 500 917 q 403 922 436 922 l 374 922 l 344 922 l 183 922 l 97 104 l 322 104 l 354 401 l 369 401 q 415 388 406 401 q 419 374 418 383 q 419 354 419 365 q 417 333 418 343 q 415 317 417 322 l 415 306 l 393 104 l 618 104 l 642 321 m 429 696 q 453 661 456 686 q 422 628 449 635 q 400 625 415 625 l 383 625 l 378 625 l 385 696 q 390 697 386 697 l 407 697 q 429 696 422 697 m 588 649 q 555 576 578 606 q 504 514 532 546 q 526 481 515 497 q 545 446 538 464 q 556 408 553 428 q 557 364 560 388 l 539 193 l 489 193 l 501 317 q 508 376 506 347 q 494 435 510 406 q 454 476 479 461 q 397 490 429 490 l 275 490 l 243 193 l 193 193 l 261 835 l 414 835 q 488 826 456 835 q 549 788 521 818 q 584 724 574 760 q 588 649 594 688 m 439 544 q 507 589 479 556 q 539 663 535 622 q 522 736 543 703 q 464 781 501 769 q 433 785 456 783 q 384 786 410 786 q 336 786 358 786 q 306 786 314 786 l 279 539 q 310 539 288 539 q 358 539 332 539 q 406 540 383 539 q 439 544 429 542 m 454 757 q 501 722 485 747 q 515 663 518 696 q 488 603 511 629 q 433 568 465 578 q 408 565 426 565 q 370 564 390 564 q 332 564 350 564 q 307 564 314 564 l 328 761 q 353 761 335 761 q 391 761 371 761 q 429 760 411 761 q 454 757 447 758 m 425 615 q 451 633 440 619 q 465 663 463 646 q 458 692 467 679 q 435 710 450 706 q 403 714 419 715 q 371 713 386 713 l 361 614 q 392 612 376 614 q 425 615 408 610 m 626 814 q 658 742 649 781 q 663 665 667 704 q 642 586 658 625 q 597 514 626 547 q 630 422 628 469 q 626 322 632 375 l 606 119 l 408 119 l 428 307 q 430 326 428 314 q 433 352 432 339 q 432 378 433 365 q 426 397 431 390 q 385 415 413 415 q 340 415 358 415 l 310 119 l 261 119 l 113 119 l 194 910 l 343 910 q 424 910 385 910 q 500 902 464 910 q 567 874 536 894 q 626 814 599 854 m 581 350 q 583 400 583 379 q 576 439 582 421 q 560 474 571 457 q 535 514 550 492 q 588 584 565 550 q 614 667 610 618 q 558 814 621 756 q 489 852 526 844 q 407 860 451 860 l 240 860 l 167 169 l 265 169 l 297 465 q 353 467 325 465 q 410 464 382 468 q 457 441 438 460 q 482 394 476 422 q 483 372 483 388 q 481 338 482 356 q 477 305 479 321 q 475 282 475 289 l 463 169 l 561 169 l 581 350 z "},"r":{"ha":660,"x_min":28,"x_max":707,"o":"m 703 661 q 647 514 694 582 q 671 419 669 467 q 667 321 672 371 l 640 79 l 636 79 l 593 0 l 324 0 l 329 57 l 297 0 l 28 0 l 118 863 l 158 936 l 160 949 l 406 949 q 476 946 442 949 q 543 931 511 943 q 605 898 575 919 q 660 839 635 876 q 697 755 688 800 q 703 661 707 710 m 393 369 l 374 332 l 393 368 l 393 369 m 642 321 q 645 420 647 374 q 615 514 643 467 q 659 589 643 549 q 678 669 675 629 q 671 749 681 710 q 639 822 661 789 q 588 876 615 857 q 530 906 560 896 q 468 919 500 917 q 403 922 436 922 l 374 922 l 344 922 l 183 922 l 97 104 l 322 104 l 354 401 l 369 401 q 415 388 406 401 q 419 374 418 383 q 419 354 419 365 q 417 333 418 343 q 415 317 417 322 l 415 306 l 393 104 l 618 104 l 642 321 m 429 696 q 453 661 456 686 q 422 628 449 635 q 400 625 415 625 l 383 625 l 378 625 l 385 696 q 390 697 386 697 l 407 697 q 429 696 422 697 m 588 649 q 555 576 578 606 q 504 514 532 546 q 526 481 515 497 q 545 446 538 464 q 556 408 553 428 q 557 364 560 388 l 539 193 l 489 193 l 501 317 q 508 376 506 347 q 494 435 510 406 q 454 476 479 461 q 397 490 429 490 l 275 490 l 243 193 l 193 193 l 261 835 l 414 835 q 488 826 456 835 q 549 788 521 818 q 584 724 574 760 q 588 649 594 688 m 439 544 q 507 589 479 556 q 539 663 535 622 q 522 736 543 703 q 464 781 501 769 q 433 785 456 783 q 384 786 410 786 q 336 786 358 786 q 306 786 314 786 l 279 539 q 310 539 288 539 q 358 539 332 539 q 406 540 383 539 q 439 544 429 542 m 454 757 q 501 722 485 747 q 515 663 518 696 q 488 603 511 629 q 433 568 465 578 q 408 565 426 565 q 370 564 390 564 q 332 564 350 564 q 307 564 314 564 l 328 761 q 353 761 335 761 q 391 761 371 761 q 429 760 411 761 q 454 757 447 758 m 425 615 q 451 633 440 619 q 465 663 463 646 q 458 692 467 679 q 435 710 450 706 q 403 714 419 715 q 371 713 386 713 l 361 614 q 392 612 376 614 q 425 615 408 610 m 626 814 q 658 742 649 781 q 663 665 667 704 q 642 586 658 625 q 597 514 626 547 q 630 422 628 469 q 626 322 632 375 l 606 119 l 408 119 l 428 307 q 430 326 428 314 q 433 352 432 339 q 432 378 433 365 q 426 397 431 390 q 385 415 413 415 q 340 415 358 415 l 310 119 l 261 119 l 113 119 l 194 910 l 343 910 q 424 910 385 910 q 500 902 464 910 q 567 874 536 894 q 626 814 599 854 m 581 350 q 583 400 583 379 q 576 439 582 421 q 560 474 571 457 q 535 514 550 492 q 588 584 565 550 q 614 667 610 618 q 558 814 621 756 q 489 852 526 844 q 407 860 451 860 l 240 860 l 167 169 l 265 169 l 297 465 q 353 467 325 465 q 410 464 382 468 q 457 441 438 460 q 482 394 476 422 q 483 372 483 388 q 481 338 482 356 q 477 305 479 321 q 475 282 475 289 l 463 169 l 561 169 l 581 350 z "},"Y":{"ha":660,"x_min":72,"x_max":731,"o":"m 289 629 q 310 532 282 572 q 399 492 338 492 q 494 532 458 492 q 536 629 529 572 l 558 836 l 607 836 l 594 719 q 590 660 592 689 q 582 601 588 631 q 524 496 569 540 q 473 460 500 472 q 417 438 446 449 l 390 196 l 342 196 l 368 438 q 317 460 342 449 q 272 496 292 472 q 244 544 253 519 q 238 601 236 569 q 242 660 239 631 q 249 719 246 689 l 261 836 l 311 836 l 289 629 m 731 949 l 696 618 q 635 458 688 528 l 610 413 q 517 308 575 350 l 492 79 l 486 79 l 443 0 l 174 0 l 203 281 q 104 385 136 318 q 81 535 72 451 l 115 863 l 156 938 l 157 949 l 435 949 l 429 896 l 453 938 l 454 949 l 731 949 m 703 924 l 476 924 l 446 628 q 431 585 443 594 q 406 576 419 576 q 383 585 392 576 q 376 628 374 594 l 407 924 l 181 924 l 149 618 q 173 475 140 539 q 271 378 206 411 l 242 104 l 468 104 l 497 378 q 617 475 571 411 q 671 618 663 539 l 703 924 m 406 565 q 447 585 436 565 q 461 631 458 606 l 471 724 l 490 911 l 688 911 l 657 619 q 605 482 650 544 q 486 389 560 419 l 458 121 l 261 121 l 289 389 q 189 482 221 419 q 164 619 157 544 l 194 911 l 392 911 l 372 724 l 363 631 q 367 585 360 606 q 406 565 374 565 m 489 563 q 449 528 474 540 q 400 515 425 515 q 353 528 374 515 q 321 563 332 540 q 311 610 308 586 q 317 660 314 635 l 339 861 l 240 861 q 225 734 233 797 q 213 607 217 671 q 217 545 210 572 q 244 490 225 518 q 288 449 264 464 q 340 421 313 433 l 314 171 l 413 171 l 439 421 q 499 449 471 433 q 551 490 528 464 q 589 545 575 518 q 607 607 603 572 q 622 734 617 671 q 635 861 628 797 l 536 861 l 514 660 q 509 610 511 635 q 489 563 507 586 z "},"y":{"ha":660,"x_min":72,"x_max":731,"o":"m 289 629 q 310 532 282 572 q 399 492 338 492 q 494 532 458 492 q 536 629 529 572 l 558 836 l 607 836 l 594 719 q 590 660 592 689 q 582 601 588 631 q 524 496 569 540 q 473 460 500 472 q 417 438 446 449 l 390 196 l 342 196 l 368 438 q 317 460 342 449 q 272 496 292 472 q 244 544 253 519 q 238 601 236 569 q 242 660 239 631 q 249 719 246 689 l 261 836 l 311 836 l 289 629 m 731 949 l 696 618 q 635 458 688 528 l 610 413 q 517 308 575 350 l 492 79 l 486 79 l 443 0 l 174 0 l 203 281 q 104 385 136 318 q 81 535 72 451 l 115 863 l 156 938 l 157 949 l 435 949 l 429 896 l 453 938 l 454 949 l 731 949 m 703 924 l 476 924 l 446 628 q 431 585 443 594 q 406 576 419 576 q 383 585 392 576 q 376 628 374 594 l 407 924 l 181 924 l 149 618 q 173 475 140 539 q 271 378 206 411 l 242 104 l 468 104 l 497 378 q 617 475 571 411 q 671 618 663 539 l 703 924 m 406 565 q 447 585 436 565 q 461 631 458 606 l 471 724 l 490 911 l 688 911 l 657 619 q 605 482 650 544 q 486 389 560 419 l 458 121 l 261 121 l 289 389 q 189 482 221 419 q 164 619 157 544 l 194 911 l 392 911 l 372 724 l 363 631 q 367 585 360 606 q 406 565 374 565 m 489 563 q 449 528 474 540 q 400 515 425 515 q 353 528 374 515 q 321 563 332 540 q 311 610 308 586 q 317 660 314 635 l 339 861 l 240 861 q 225 734 233 797 q 213 607 217 671 q 217 545 210 572 q 244 490 225 518 q 288 449 264 464 q 340 421 313 433 l 314 171 l 413 171 l 439 421 q 499 449 471 433 q 551 490 528 464 q 589 545 575 518 q 607 607 603 572 q 622 734 617 671 q 635 861 628 797 l 536 861 l 514 660 q 509 610 511 635 q 489 563 507 586 z "},"f":{"ha":660,"x_min":28,"x_max":732,"o":"m 703 671 l 699 671 l 689 653 l 701 653 l 672 375 l 668 375 l 624 296 l 369 296 l 346 79 l 340 79 l 297 0 l 28 0 l 118 863 l 158 938 l 160 949 l 732 949 l 703 671 m 681 697 l 704 924 l 183 924 l 97 106 l 322 106 l 354 401 l 650 401 l 674 628 l 378 628 l 385 697 l 681 697 m 311 121 l 263 121 l 114 121 l 196 910 l 344 910 l 393 910 l 689 910 l 668 713 l 372 713 l 363 614 l 658 614 l 638 417 l 342 417 l 311 121 m 240 861 l 167 169 l 267 169 l 299 465 l 594 465 l 604 565 l 308 565 l 329 763 l 625 763 l 636 861 l 389 861 l 340 861 l 240 861 m 576 540 l 572 490 l 276 490 l 244 194 l 194 194 l 263 836 l 608 836 l 603 786 l 307 786 l 281 540 l 576 540 z "}}}
